<?xml version="1.0" encoding="utf-8"?>
<!-- Generator: Adobe Illustrator 18.0.0, SVG Export Plug-In . SVG Version: 6.00 Build 0)  -->
<!DOCTYPE svg PUBLIC "-//W3C//DTD SVG 1.1//EN" "http://www.w3.org/Graphics/SVG/1.1/DTD/svg11.dtd">
<svg version="1.1" id="图层_1" xmlns="http://www.w3.org/2000/svg" xmlns:xlink="http://www.w3.org/1999/xlink" x="0px" y="0px"
	 viewBox="0 0 22 22" enable-background="new 0 0 22 22" xml:space="preserve">
<path fill="#E45B50" d="M11,21.5c5.9,0,10.6-4.8,10.6-10.6C21.6,5,16.9,0.2,11,0.2C5.1,0.2,0.4,5,0.4,10.9
	C0.4,16.7,5.1,21.5,11,21.5L11,21.5L11,21.5z M11,1.6c5.1,0,9.3,4.2,9.3,9.3s-4.2,9.3-9.3,9.3c-5.1,0-9.3-4.2-9.3-9.3
	S5.9,1.6,11,1.6L11,1.6L11,1.6z M11,4.4c2.1,0,3.8,1.7,3.8,3.8c0,2.1-1.7,3.8-3.8,3.8c-2.1,0-3.8-1.7-3.8-3.8
	C7.2,6.1,8.9,4.4,11,4.4L11,4.4L11,4.4z M11,10.9c1.5,0,2.7-1.2,2.7-2.7c0-1.5-1.2-2.7-2.7-2.7S8.3,6.7,8.3,8.2
	C8.3,9.7,9.5,10.9,11,10.9L11,10.9L11,10.9z M11,10.9c3,0,5.5,2.4,5.5,5.4h-1.1c0-2.4-2-4.3-4.4-4.3c-2.4,0-4.4,1.9-4.4,4.3H5.5
	C5.5,13.4,8,10.9,11,10.9L11,10.9L11,10.9z M11,10.9"/>
</svg>
