<?xml version="1.0" encoding="utf-8"?>
<!-- Generator: Adobe Illustrator 18.0.0, SVG Export Plug-In . SVG Version: 6.00 Build 0)  -->
<!DOCTYPE svg PUBLIC "-//W3C//DTD SVG 1.1//EN" "http://www.w3.org/Graphics/SVG/1.1/DTD/svg11.dtd">
<svg version="1.1" id="图层_1" xmlns="http://www.w3.org/2000/svg" xmlns:xlink="http://www.w3.org/1999/xlink" x="0px" y="0px"
	 viewBox="0 0 65.2 65.2" enable-background="new 0 0 65.2 65.2" xml:space="preserve">
<path fill="#E45B50" d="M33,53.3c-0.4,0-0.7-0.1-1-0.2l-13.5-5.6L4.7,52.8c-0.3,0.1-0.6,0.2-1,0.2c-0.5,0-1.1-0.2-1.5-0.5
	C1.5,52,1,51.2,1,50.3V10.1C1,9,1.7,8,2.8,7.6l14.7-5.7c0.3-0.1,0.6-0.2,1-0.2c0.4,0,0.7,0.1,1,0.2L33,7.5l14.7-6.7
	c0.4-0.2,0.7-0.2,1.1-0.2c0.2,0,0.4,0,0.6,0.1l12.7,2.9c1.2,0.3,2.1,1.4,2.1,2.6v40.2c0,0.8-0.4,1.6-1,2.1c-0.5,0.4-1.1,0.6-1.7,0.6
	c-0.2,0-0.4,0-0.6-0.1l-6.3-1.4l0.8-1.5c0.2-0.3,0.3-0.6,0.5-1l1.2-2.5l1.7,0.4V8.3l-9.7-2.2l-14.9,6.8c-0.4,0.2-0.7,0.2-1.1,0.2
	c-0.4,0-0.7-0.1-1-0.2L18.5,7.3l-12,4.6v34.4L17.5,42c0.3-0.1,0.6-0.2,1-0.2c0.4,0,0.7,0.1,1,0.2L33,47.7l0.4-0.2l2.4,4.8L34.2,53
	C33.8,53.2,33.4,53.3,33,53.3L33,53.3z M18.5,39c-0.8,0-1.4-0.6-1.4-1.4V12.1c0-0.8,0.6-1.4,1.4-1.4c0.8,0,1.4,0.6,1.4,1.4v25.5
	C19.9,38.4,19.3,39,18.5,39L18.5,39z M33,31.3c-0.8,0-1.4-0.6-1.4-1.4V17c0-0.8,0.6-1.4,1.4-1.4c0.8,0,1.4,0.6,1.4,1.4v12.8
	C34.5,30.6,33.8,31.3,33,31.3L33,31.3z M49.1,27.2c-0.8,0-1.4-0.6-1.4-1.4V10.3c0-0.8,0.6-1.4,1.4-1.4s1.4,0.6,1.4,1.4v15.5
	C50.5,26.6,49.8,27.2,49.1,27.2L49.1,27.2z M34.7,45c-0.2-0.3-0.3-0.6-0.5-0.9l-0.2-0.4l0-0.2l-0.1-0.4c-0.3-1.1-0.5-2.1-0.5-3.2
	c0-5.8,4.8-10.6,10.6-10.6c5.9,0,10.6,4.7,10.6,10.6c0,0.9-0.1,1.8-0.4,2.7c-0.1,0.2-0.1,0.4-0.2,0.6l-0.2,0.6L53.8,44
	c-0.2,0.4-0.3,0.7-0.5,1L44,63.7L34.7,45L34.7,45z M44,34.3c-2.4,0-4.4,2-4.4,4.3c0,2.4,2,4.3,4.4,4.3c2.4,0,4.4-2,4.4-4.3
	C48.4,36.2,46.4,34.3,44,34.3L44,34.3z M44,34.3"/>
</svg>
