<?xml version="1.0" encoding="utf-8"?>
<!-- Generator: Adobe Illustrator 18.0.0, SVG Export Plug-In . SVG Version: 6.00 Build 0)  -->
<!DOCTYPE svg PUBLIC "-//W3C//DTD SVG 1.1//EN" "http://www.w3.org/Graphics/SVG/1.1/DTD/svg11.dtd">
<svg version="1.1" id="图层_1" xmlns="http://www.w3.org/2000/svg" xmlns:xlink="http://www.w3.org/1999/xlink" x="0px" y="0px"
	 viewBox="0 0 18 18" enable-background="new 0 0 18 18" xml:space="preserve">
<path fill="#E45B50" d="M9.1,0.4C9.5,0.5,9.7,0.8,9.9,1c2.4,2.3,4.8,4.6,7.2,6.9c0.2,0.2,0.4,0.3,0.5,0.5c0.3,0.3,0.2,0.6,0,0.9
	c-0.2,0.2-0.6,0.2-0.8,0C14.3,7,11.9,4.6,9.4,2.3C9,1.8,9.1,1.8,8.6,2.3c-2,1.9-4,3.8-6,5.6C2.6,8,2.5,8.1,2.4,8.2
	c0.1,0,0.2,0.1,0.3,0.1c0.2,0,0.4,0,0.7,0c0.4,0,0.7,0.2,0.7,0.7c0,2.3,0,4.5,0,6.8c0,0.3,0,0.3,0.3,0.3c3.1,0,6.1,0,9.2,0
	c0.3,0,0.3,0,0.3-0.3c0-2,0-3.9,0-5.9c0-0.3,0-0.5,0.3-0.6c0.4-0.2,0.9,0,0.9,0.4c0,0.1,0,0.3,0,0.4c0,1.9,0,3.7,0,5.6
	c0,0.3,0,0.6,0,1c0,0.4-0.2,0.6-0.7,0.6c-1.2,0-2.3,0-3.5,0c-2.4,0-4.8,0-7.3,0c-0.3,0-0.5,0-0.7-0.3C3,16.9,3,16.7,3,16.5
	c0-2.2,0-4.5,0-6.7c0-0.3,0-0.4-0.4-0.4c-0.6,0-1.2,0-1.7,0c-0.3,0-0.5-0.1-0.6-0.4c-0.1-0.2,0-0.5,0.2-0.8c0.6-0.6,1.3-1.2,1.9-1.8
	c1.5-1.4,3-2.8,4.4-4.2C7.4,1.8,8,1.2,8.6,0.6C8.7,0.5,8.8,0.5,9,0.4C9,0.4,9.1,0.4,9.1,0.4L9.1,0.4z M8.6,8.9
	c0,0.2-0.2,0.4-0.3,0.4H6.6c-0.2,0-0.3-0.2-0.3-0.4V7.3C6.3,7.1,6.5,7,6.6,7h1.6c0.2,0,0.3,0.2,0.3,0.4V8.9L8.6,8.9z M12,8.9
	c0,0.2-0.2,0.4-0.3,0.4H10c-0.2,0-0.3-0.2-0.3-0.4V7.3C9.7,7.1,9.8,7,10,7h1.6C11.8,7,12,7.1,12,7.3V8.9L12,8.9z M8.6,12.2
	c0,0.2-0.2,0.4-0.3,0.4H6.6c-0.2,0-0.3-0.2-0.3-0.4v-1.6c0-0.2,0.2-0.4,0.3-0.4h1.6c0.2,0,0.3,0.2,0.3,0.4V12.2L8.6,12.2z M12,12.2
	c0,0.2-0.2,0.4-0.3,0.4H10c-0.2,0-0.3-0.2-0.3-0.4v-1.6c0-0.2,0.2-0.4,0.3-0.4h1.6c0.2,0,0.3,0.2,0.3,0.4V12.2L12,12.2z M12,12.2"/>
</svg>
