<?xml version="1.0" encoding="utf-8"?>
<!-- Generator: Adobe Illustrator 18.0.0, SVG Export Plug-In . SVG Version: 6.00 Build 0)  -->
<!DOCTYPE svg PUBLIC "-//W3C//DTD SVG 1.1//EN" "http://www.w3.org/Graphics/SVG/1.1/DTD/svg11.dtd">
<svg version="1.1" id="图层_1" xmlns="http://www.w3.org/2000/svg" xmlns:xlink="http://www.w3.org/1999/xlink" x="0px" y="0px"
	 viewBox="0 0 201.3 93.5" enable-background="new 0 0 201.3 93.5" xml:space="preserve">
<g>
	<g>
		<path fill-rule="evenodd" clip-rule="evenodd" fill="#FFFFFF" d="M86.7,44.2H52.2V24.6H80c2.7,0,4.8-2.2,4.8-4.8v-0.4
			c0-2.7-2.2-4.8-4.8-4.8H52.2V8.5c0-2.9-2.3-5.2-5.2-5.2h-0.4c-2.9,0-5.2,2.3-5.2,5.2v6.2H13.5c-2.7,0-4.8,2.2-4.8,4.8v0.4
			c0,2.7,2.2,4.8,4.8,4.8h27.9v19.5H7.2c-2.7,0-4.8,2.2-4.8,4.8v0.4c0,2.7,2.2,4.8,4.8,4.8h17.1L17.6,82c-0.4,1.6,0,3.1,0.9,4.3
			c0.8,1.4,2.4,2.3,4.1,2.3H80c2.7,0,4.8-2.2,4.8-4.8v-0.4c0-0.2,0-0.3-0.1-0.5c0-0.4,0-0.8-0.1-1.2L81,66.6
			c-0.7-2.8-3.5-4.5-6.2-3.8l-0.3,0.1c-2.8,0.7-4.5,3.5-3.8,6.3l2.3,9.6H29.4l5.9-24.6h51.4c2.7,0,4.8-2.2,4.8-4.8V49
			C91.5,46.3,89.4,44.2,86.7,44.2z M156.1,20.5l0.3,0.1c0,0,0.1,0,0.1,0c0.7,0.4,1.4,0.6,2.2,0.6h34.4c2.5,0,4.5-2,4.5-4.5v-0.4
			c0-2.5-2-4.5-4.5-4.5h-28.8l1.1-2.8c0.9-2.1-0.2-4.5-2.3-5.3l-0.3-0.1c-2.1-0.9-4.5,0.2-5.3,2.3l-3.7,9.2
			C153,17.2,154,19.6,156.1,20.5z M143.6,64.8h-0.4c-2.3,0-4.1,1.8-4.1,4.1v9.9c0,2.3,1.8,4.1,4.1,4.1h0.4c2.3,0,4.1-1.8,4.1-4.1
			v-9.9C147.7,66.6,145.8,64.8,143.6,64.8z M123,15.8h-0.8c-6.8,0-12.3,5.5-12.3,12.3v36.1c0,6.8,5.5,12.3,12.3,12.3h0.8
			c6.8,0,12.3-5.5,12.3-12.3V28C135.2,21.2,129.7,15.8,123,15.8z M125.2,65.8c0,1.5-1.2,2.7-2.7,2.7h-0.4c-1.5,0-2.7-1.2-2.7-2.7
			V26.6c0-1.5,1.2-2.7,2.7-2.7h0.4c1.5,0,2.7,1.2,2.7,2.7V65.8z M143.6,37.1h-0.4c-2.3,0-4.1,1.8-4.1,4.1v9.9c0,2.3,1.8,4.1,4.1,4.1
			h0.4c2.3,0,4.1-1.8,4.1-4.1v-9.9C147.7,38.9,145.8,37.1,143.6,37.1z M175.1,37.9c-2.6,0-4.6,2.1-4.6,4.6c0,2.6,2.1,4.6,4.6,4.6
			c2.6,0,4.6-2.1,4.6-4.6C179.7,40,177.6,37.9,175.1,37.9z M194,51.3h-1.1v-11c0-9.8-8-17.8-17.8-17.8h-0.7c-9.8,0-17.8,8-17.8,17.8
			v11h-1.9c-2.7,0-4.8,2.2-4.8,4.8v0.4c0,2.7,2.2,4.8,4.8,4.8h1.9v9.9c0,9.8,8,17.8,17.8,17.8h0.7c9.8,0,17.8-8,17.8-17.8v-9.9h1.1
			c2.7,0,4.8-2.2,4.8-4.8v-0.4C198.8,53.5,196.7,51.3,194,51.3z M184.1,72.3c0,5-4.1,9.1-9.1,9.1h-0.4c-5,0-9.1-4.1-9.1-9.1v-11
			h18.5V72.3z M184.1,51.3h-18.5V40.5c0-5,4.1-9.1,9.1-9.1h0.4c5,0,9.1,4.1,9.1,9.1V51.3z M175.1,75.3c2.6,0,4.6-2.1,4.6-4.6
			c0-2.6-2.1-4.6-4.6-4.6c-2.6,0-4.6,2.1-4.6,4.6C170.5,73.2,172.5,75.3,175.1,75.3z M143.6,9.4h-0.4c-2.3,0-4.1,1.8-4.1,4.1v9.9
			c0,2.3,1.8,4.1,4.1,4.1h0.4c2.3,0,4.1-1.8,4.1-4.1v-9.9C147.7,11.2,145.8,9.4,143.6,9.4z"/>
	</g>
</g>
</svg>
