<?xml version="1.0" encoding="utf-8"?>
<!-- Generator: Adobe Illustrator 18.0.0, SVG Export Plug-In . SVG Version: 6.00 Build 0)  -->
<!DOCTYPE svg PUBLIC "-//W3C//DTD SVG 1.1//EN" "http://www.w3.org/Graphics/SVG/1.1/DTD/svg11.dtd">
<svg version="1.1" id="图层_1" xmlns="http://www.w3.org/2000/svg" xmlns:xlink="http://www.w3.org/1999/xlink" x="0px" y="0px"
	 viewBox="0 0 62.4 62.4" enable-background="new 0 0 62.4 62.4" xml:space="preserve">
<path fill="#E45B50" d="M61.9,31.2c0-16.9-13.7-30.6-30.6-30.6C14.3,0.6,0.6,14.3,0.6,31.2s13.7,30.6,30.6,30.6
	c6.9,0,13.3-2.4,18.4-6.3c0.2-0.2,0.3-0.5,0.3-0.9c0-0.7-0.6-1.4-1.4-1.4c-0.4,0-0.7,0.2-1,0.4h0c-4.6,3.4-10.3,5.4-16.4,5.4
	c-15.3,0-27.7-12.4-27.7-27.7c0-15.3,12.4-27.7,27.7-27.7C46.6,3.7,59,16.1,59,31.4c0,4.7-1.1,9.1-3.1,13v0c0,0.1-0.1,0.3-0.1,0.4
	c0,0.8,0.6,1.4,1.4,1.4c0.6,0,1.1-0.4,1.3-0.9v0C60.6,41.1,61.9,36.3,61.9,31.2L61.9,31.2L61.9,31.2z M31.3,32.9
	c-0.2,0-0.4,0-0.6-0.1l-17.9-7.5c-0.6-0.2-0.9-0.8-0.9-1.4c0-0.6,0.4-1.2,0.9-1.4L30.7,15c0.4-0.2,0.8-0.2,1.2,0l17.9,7.5
	c0.6,0.2,0.9,0.8,0.9,1.4c0,0.6-0.4,1.2-0.9,1.4l-17.9,7.5C31.7,32.9,31.5,32.9,31.3,32.9L31.3,32.9z M17.4,23.9l13.9,5.8l13.9-5.8
	l-13.9-5.8L17.4,23.9L17.4,23.9z M31.3,39.8c-0.2,0-0.4,0-0.6-0.1l-17.9-7.5c-0.8-0.3-1.2-1.2-0.8-2c0.3-0.8,1.2-1.2,2-0.8l17.3,7.2
	l17.3-7.2c0.8-0.3,1.7,0,2,0.8c0.3,0.8,0,1.7-0.8,2l-17.9,7.5C31.7,39.8,31.5,39.8,31.3,39.8L31.3,39.8z M31.3,46.5
	c-0.2,0-0.4,0-0.6-0.1l-17.9-7.5c-0.8-0.3-1.2-1.2-0.8-2c0.3-0.8,1.2-1.2,2-0.8l17.3,7.2l17.3-7.2c0.8-0.3,1.7,0,2,0.8
	c0.3,0.8,0,1.7-0.8,2l-17.9,7.5C31.7,46.5,31.5,46.5,31.3,46.5L31.3,46.5z M31.3,46.5"/>
</svg>
