<?xml version="1.0" encoding="utf-8"?>
<!-- Generator: Adobe Illustrator 18.0.0, SVG Export Plug-In . SVG Version: 6.00 Build 0)  -->
<!DOCTYPE svg PUBLIC "-//W3C//DTD SVG 1.1//EN" "http://www.w3.org/Graphics/SVG/1.1/DTD/svg11.dtd">
<svg version="1.1" id="图层_1" xmlns="http://www.w3.org/2000/svg" xmlns:xlink="http://www.w3.org/1999/xlink" x="0px" y="0px"
	 viewBox="0 0 31 31" enable-background="new 0 0 31 31" xml:space="preserve">
<path fill="#E45B50" d="M15.5,0.2C7.1,0.2,0.3,7,0.3,15.3c0,8.4,6.8,15.2,15.2,15.2c8.4,0,15.2-6.8,15.2-15.2
	C30.7,7,23.9,0.2,15.5,0.2L15.5,0.2z M20.3,18.7c0.4,0,0.7,0.3,0.7,0.7c0,0.4-0.3,0.7-0.7,0.7h-4v5.1c0,0.4-0.3,0.7-0.7,0.7
	c-0.4,0-0.7-0.3-0.7-0.7v-5.1h-4c-0.4,0-0.7-0.3-0.7-0.7c0-0.4,0.3-0.7,0.7-0.7h4v-1.9c-2.9-0.4-5.1-2.9-5.1-6c0-3.3,2.7-6,6-6
	c3.3,0,6,2.7,6,6c0,3.2-2.5,5.8-5.6,6v1.9H20.3L20.3,18.7z M20.5,10.9c0-2.6-2.1-4.7-4.7-4.7c-2.6,0-4.7,2.1-4.7,4.7
	c0,2.6,2.1,4.7,4.7,4.7C18.4,15.6,20.5,13.5,20.5,10.9L20.5,10.9z M20.5,10.9"/>
</svg>
