<?xml version="1.0" encoding="utf-8"?>
<!-- Generator: Adobe Illustrator 18.0.0, SVG Export Plug-In . SVG Version: 6.00 Build 0)  -->
<!DOCTYPE svg PUBLIC "-//W3C//DTD SVG 1.1//EN" "http://www.w3.org/Graphics/SVG/1.1/DTD/svg11.dtd">
<svg version="1.1" id="图层_1" xmlns="http://www.w3.org/2000/svg" xmlns:xlink="http://www.w3.org/1999/xlink" x="0px" y="0px"
	 viewBox="0 0 62.4 62.4" enable-background="new 0 0 62.4 62.4" xml:space="preserve">
<path fill="#E45B50" d="M30.9,1.1C14.2,1.1,0.6,14.7,0.6,31.4c0,2.1,0.2,4.1,0.6,6.1c0.2,1,1.2,1.7,2.2,1.5c1-0.2,1.7-1.2,1.5-2.2
	c-0.4-1.7-0.5-3.5-0.5-5.3c0-14.6,11.9-26.5,26.5-26.5s26.5,11.9,26.5,26.5c0,14.6-11.9,26.5-26.5,26.5c-2,0-3.9-0.2-5.8-0.6
	c-1-0.2-2,0.4-2.3,1.4c-0.2,1,0.4,2,1.4,2.3c2.2,0.5,4.4,0.7,6.6,0.7c16.7,0,30.2-13.6,30.2-30.2C61.1,14.7,47.5,1.1,30.9,1.1
	L30.9,1.1z M46,20.9L6.6,30.8l15.2,7.6l4.8,16.7L46,20.9L46,20.9z M17.4,32l21-5.2L27.7,45.4l-2.8-9.7L17.4,32L17.4,32z M17.4,32"/>
</svg>
