<?xml version="1.0" encoding="utf-8"?>
<!-- Generator: Adobe Illustrator 18.0.0, SVG Export Plug-In . SVG Version: 6.00 Build 0)  -->
<!DOCTYPE svg PUBLIC "-//W3C//DTD SVG 1.1//EN" "http://www.w3.org/Graphics/SVG/1.1/DTD/svg11.dtd">
<svg version="1.1" id="图层_1" xmlns="http://www.w3.org/2000/svg" xmlns:xlink="http://www.w3.org/1999/xlink" x="0px" y="0px"
	 viewBox="0 0 56.7 45.3" enable-background="new 0 0 56.7 45.3" xml:space="preserve">
<g>
	<g>
		<path fill-rule="evenodd" clip-rule="evenodd" fill="#CCCCCC" d="M53.2,42.1h-7.1v-15c0-0.6-0.5-1.2-1.2-1.2
			c-0.7,0-1.2,0.5-1.2,1.2v15h-3.5V31.7c0-1.3-1.1-2.3-2.4-2.3H32c-1.3,0-2.4,1-2.4,2.3v10.4H13v-15c0-0.6-0.5-1.2-1.2-1.2
			c-0.7,0-1.2,0.5-1.2,1.2v15H3.6c-0.7,0-1.2,0.5-1.2,1.2c0,0.6,0.5,1.2,1.2,1.2h49.6c0.7,0,1.2-0.5,1.2-1.2
			C54.4,42.6,53.9,42.1,53.2,42.1z M37.9,42.1H32v-9.2c0-0.6,0.5-1.2,1.2-1.2h3.5c0.7,0,1.2,0.5,1.2,1.2V42.1z M55.6,15.6l-1.2-8.1
			c0-3.8-3.2-6.9-7.1-6.9H9.5c-3.9,0-7.1,3.1-7.1,6.9l-1.2,8.1h0.2l-0.2,1.2c0,2.6,2.1,4.6,4.7,4.6h2.4c1.4,0,2.7-0.6,3.5-1.6
			c0.9,1,2.1,1.6,3.5,1.6h1.2c1.4,0,2.7-0.6,3.5-1.6c0.9,1,2.1,1.6,3.5,1.6h1.2c1.4,0,2.7-0.6,3.5-1.6c0.9,1,2.1,1.6,3.5,1.6h1.2
			c1.4,0,2.7-0.6,3.5-1.6c0.9,1,2.1,1.6,3.5,1.6h1.2c1.4,0,2.7-0.6,3.5-1.6c0.9,1,2.1,1.6,3.5,1.6h2.4c2.6,0,4.7-2.1,4.7-4.6
			l-0.2-1.2H55.6z M53.2,16.7c0,1.3-1.1,2.3-2.4,2.3h-2.4c-1.3,0-2.4-1-2.4-2.3v-4.6c0-0.6-0.5-1.2-1.2-1.2c-0.7,0-1.2,0.5-1.2,1.2
			v4.6c0,1.3-1.1,2.3-2.4,2.3h-1.2c-1.3,0-2.4-1-2.4-2.3v-4.6c0-0.6-0.5-1.2-1.2-1.2s-1.2,0.5-1.2,1.2v4.6c0,1.3-1.1,2.3-2.4,2.3H32
			c-1.3,0-2.4-1-2.4-2.3v-4.6c0-0.6-0.5-1.2-1.2-1.2c-0.7,0-1.2,0.5-1.2,1.2v4.6c0,1.3-1.1,2.3-2.4,2.3h-1.2c-1.3,0-2.4-1-2.4-2.3
			v-4.6c0-0.6-0.5-1.2-1.2-1.2c-0.7,0-1.2,0.5-1.2,1.2v4.6c0,1.3-1.1,2.3-2.4,2.3h-1.2c-1.3,0-2.4-1-2.4-2.3v-4.6
			c0-0.6-0.5-1.2-1.2-1.2c-0.7,0-1.2,0.5-1.2,1.2v4.6c0,1.3-1.1,2.3-2.4,2.3H6c-1.3,0-2.4-1-2.4-2.3l0.2-1.2H3.6l1.2-8.1
			c0-2.6,2.1-4.6,4.7-4.6h37.8c2.6,0,4.7,2.1,4.7,4.6l1.2,8.1H53L53.2,16.7z M35.5,37.5c-0.7,0-1.2,0.5-1.2,1.2
			c0,0.6,0.5,1.2,1.2,1.2c0.7,0,1.2-0.5,1.2-1.2C36.7,38,36.2,37.5,35.5,37.5z"/>
	</g>
</g>
</svg>
