<?xml version="1.0" encoding="utf-8"?>
<!-- Generator: Adobe Illustrator 18.0.0, SVG Export Plug-In . SVG Version: 6.00 Build 0)  -->
<!DOCTYPE svg PUBLIC "-//W3C//DTD SVG 1.1//EN" "http://www.w3.org/Graphics/SVG/1.1/DTD/svg11.dtd">
<svg version="1.1" id="图层_1" xmlns="http://www.w3.org/2000/svg" xmlns:xlink="http://www.w3.org/1999/xlink" x="0px" y="0px"
	 viewBox="0 0 48.2 51" enable-background="new 0 0 48.2 51" xml:space="preserve">
<path fill="#E45B50" d="M44.5,28.7c3.2,0,4.7-9.5,0-9.5H35c9.5-15.8,2.6-18.9,0-18.9c0,8-11.8,17-23.7,20.5V46H8.2V20.8h3.2v-1.6H5
	c-1.7,0-3.2,2.1-3.2,4.7v18.9c0,2.6,1.4,4.7,3.2,4.7h6.3V46c13.5,1.4,8.8,4.7,22.1,4.7c3.2,0,6.3-1.6,6.3-4.7c3.2,0,4.7-7.9,3.2-7.9
	C46.1,38.1,48.1,28.7,44.5,28.7L44.5,28.7L44.5,28.7z M44.5,28.7"/>
</svg>
