<?xml version="1.0" encoding="utf-8"?>
<!-- Generator: Adobe Illustrator 18.0.0, SVG Export Plug-In . SVG Version: 6.00 Build 0)  -->
<!DOCTYPE svg PUBLIC "-//W3C//DTD SVG 1.1//EN" "http://www.w3.org/Graphics/SVG/1.1/DTD/svg11.dtd">
<svg version="1.1" id="图层_1" xmlns="http://www.w3.org/2000/svg" xmlns:xlink="http://www.w3.org/1999/xlink" x="0px" y="0px"
	 viewBox="0 0 31 31" enable-background="new 0 0 31 31" xml:space="preserve">
<path fill="#E45B50" d="M15.6,0.1C7.1,0.1,0.2,7,0.2,15.5c0,8.5,6.9,15.4,15.4,15.4C24.1,30.9,31,24,31,15.5C31,7,24.1,0.1,15.6,0.1
	L15.6,0.1z M20.5,19.9c0.3-0.2,0.7-0.2,0.9,0.1c0.2,0.3,0.2,0.7-0.1,0.9l-5.1,4.5c-0.1,0.1-0.3,0.2-0.4,0.2c-0.2,0-0.3-0.1-0.4-0.2
	l-5.4-4.5c-0.3-0.2-0.3-0.7-0.1-0.9c0.2-0.3,0.7-0.3,0.9-0.1l4.3,3.6v-6.1c-3.1-0.4-5.5-3-5.5-6.1c0-3.4,2.8-6.2,6.2-6.2
	c3.4,0,6.2,2.8,6.2,6.2c0,3.2-2.5,5.8-5.6,6.2v6.1L20.5,19.9L20.5,19.9z M20.6,11.2c0-2.7-2.2-4.8-4.8-4.8S11,8.6,11,11.2
	c0,2.7,2.2,4.8,4.8,4.8S20.6,13.9,20.6,11.2L20.6,11.2z M20.6,11.2"/>
</svg>
