<?xml version="1.0" encoding="utf-8"?>
<!-- Generator: Adobe Illustrator 18.0.0, SVG Export Plug-In . SVG Version: 6.00 Build 0)  -->
<!DOCTYPE svg PUBLIC "-//W3C//DTD SVG 1.1//EN" "http://www.w3.org/Graphics/SVG/1.1/DTD/svg11.dtd">
<svg version="1.1" id="图层_1" xmlns="http://www.w3.org/2000/svg" xmlns:xlink="http://www.w3.org/1999/xlink" x="0px" y="0px"
	 viewBox="0 0 18 22" enable-background="new 0 0 18 22" xml:space="preserve">
<path fill="#999899" d="M15.3,2.8h-1.9V1.5h-1.7C11.1,0.8,10.1,0.3,9,0.3S6.8,0.8,6.3,1.5H4.6v1.3H2.7C1.3,2.8,0.1,4,0.1,5.4v12.9
	c0,1.4,1.1,2.6,2.5,2.6h12.6c1.4,0,2.5-1.2,2.5-2.6V5.4C17.8,4,16.7,2.8,15.3,2.8L15.3,2.8z M5.8,2.8h1.4C7.2,2.1,8,1.5,9,1.5
	s1.8,0.6,1.8,1.3h1.4v2.6H5.8V2.8L5.8,2.8z M16.5,18.3c0,0.7-0.6,1.3-1.3,1.3H2.7c-0.7,0-1.3-0.6-1.3-1.3V5.4c0-0.7,0.6-1.3,1.3-1.3
	h1.9v2.6h8.8V4.1h1.9c0.7,0,1.3,0.6,1.3,1.3V18.3L16.5,18.3z M13.4,15.7H4.6c-0.3,0-0.6,0.3-0.6,0.6c0,0.4,0.3,0.6,0.6,0.6h8.8
	c0.3,0,0.6-0.3,0.6-0.6C14,16,13.7,15.7,13.4,15.7L13.4,15.7z M13.4,9.3H4.6c-0.3,0-0.6,0.3-0.6,0.6c0,0.4,0.3,0.6,0.6,0.6h8.8
	c0.3,0,0.6-0.3,0.6-0.6C14,9.6,13.7,9.3,13.4,9.3L13.4,9.3z M13.4,12.5H4.6c-0.3,0-0.6,0.3-0.6,0.6c0,0.4,0.3,0.6,0.6,0.6h8.8
	c0.3,0,0.6-0.3,0.6-0.6C14,12.8,13.7,12.5,13.4,12.5L13.4,12.5z M13.4,12.5"/>
</svg>
