<?xml version="1.0" encoding="utf-8"?>
<!-- Generator: Adobe Illustrator 18.0.0, SVG Export Plug-In . SVG Version: 6.00 Build 0)  -->
<!DOCTYPE svg PUBLIC "-//W3C//DTD SVG 1.1//EN" "http://www.w3.org/Graphics/SVG/1.1/DTD/svg11.dtd">
<svg version="1.1" id="图层_1" xmlns="http://www.w3.org/2000/svg" xmlns:xlink="http://www.w3.org/1999/xlink" x="0px" y="0px"
	 viewBox="0 0 65.2 65.2" enable-background="new 0 0 65.2 65.2" xml:space="preserve">
<path fill="#E45B50" d="M65,59.5L47.7,42.4c3.3-4.4,5.2-9.8,5.2-15.7c0-14.5-11.7-26.2-26.2-26.2C12.3,0.5,0.5,12.3,0.5,26.7
	c0,14.5,11.7,26.2,26.2,26.2c5.9,0,11.3-2,15.7-5.2l17.1,17L65,59.5L65,59.5z M4.9,26.7c0-12,9.8-21.8,21.8-21.8
	c12,0,21.8,9.8,21.8,21.8c0,12-9.8,21.8-21.8,21.8C14.7,48.5,4.9,38.8,4.9,26.7L4.9,26.7z M4.9,26.7"/>
</svg>
