<?xml version="1.0" encoding="utf-8"?>
<!-- Generator: Adobe Illustrator 18.0.0, SVG Export Plug-In . SVG Version: 6.00 Build 0)  -->
<!DOCTYPE svg PUBLIC "-//W3C//DTD SVG 1.1//EN" "http://www.w3.org/Graphics/SVG/1.1/DTD/svg11.dtd">
<svg version="1.1" id="图层_1" xmlns="http://www.w3.org/2000/svg" xmlns:xlink="http://www.w3.org/1999/xlink" x="0px" y="0px"
	 viewBox="0 0 178.6 56.7" enable-background="new 0 0 178.6 56.7" xml:space="preserve">
<g>
	<g>
		<path fill="#E45B50" d="M80.5,27.3c0,1-0.1,2.2-0.3,3.6h6.4v-8.5h-6.1V27.3z M152.3,1.3H27.2C13,1.3,1.5,12.8,1.5,26.9v2.8
			c0,14.1,11.5,25.6,25.6,25.6h125.2c14.1,0,25.6-11.5,25.6-25.6v-2.8C177.9,12.8,166.5,1.3,152.3,1.3z M121.1,11.7
			c0.8,0.4,2,1.3,3.5,2.5c0.4,0.3,0.6,0.5,0.8,0.7l-1.2,1.3c-1.2-1.1-2.6-2.2-4.1-3.5L121.1,11.7z M28.3,37.3
			c-0.4,0.4-0.6,0.6-0.8,0.7L26,36.4c0.6-0.7,0.9-1.7,0.9-2.9V22.1l-4.3,0.4l-0.1-1.7l4.4-0.5v-9.7h1.9v9.6l6.7-0.8l0.3,1.7
			l-6.9,0.8v12.7c1.5-1,3.7-2.6,6.7-4.9v0.3c0.2,0.8,0.4,1.4,0.5,1.7c-3.2,2.2-5.5,3.9-6.9,5.1C28.9,36.8,28.6,37,28.3,37.3z
			 M52.3,35.8c-0.1,3.7-2,5.6-5.6,5.5c-1.9,0.1-3.4,0.1-4.5,0.1c-0.1-0.8-0.3-1.5-0.5-2.1c0.7,0.1,2.3,0.1,4.8,0.1
			c2.6,0.1,3.9-1.1,4-3.5c0.2-3.5,0.4-9.6,0.7-18.5c0.1-1.4,0.1-2.4,0.1-2.9h-8.7c0,1.8-0.1,4.9-0.4,9.3c-0.3,8.4-3.2,14.6-8.7,18.5
			C33.3,42,32.8,41.6,32,41c5.4-3.8,8.2-9.5,8.3-17.1c0.3-2.9,0.4-6.1,0.4-9.5h-6.1v-1.7h18.7C53,19.6,52.7,27.3,52.3,35.8z
			 M64.7,28.1v10.7c0.1,2.1-0.9,3.2-3.1,3.3h-2.7c0-0.7-0.1-1.3-0.3-1.9c1,0.1,1.8,0.1,2.4,0.1c1.3,0.1,2-0.5,1.9-1.9v-9.9
			c-0.5,0.2-1.3,0.4-2.4,0.8c-0.8,0.3-1.4,0.5-1.9,0.7l-0.1-1.9c0.3-0.1,0.7-0.2,1.2-0.4c0.5-0.1,1.6-0.4,3.2-0.9v-8.4h-3.9v-1.6
			h3.9v-6.3h1.7v6.3h3.7v1.6h-3.7v7.9c0.6-0.2,1.5-0.5,2.7-0.9c0.4-0.2,0.8-0.3,0.9-0.4c0,0.3,0,0.6,0.1,1.1v0.8
			c-0.4,0.1-1,0.3-1.9,0.5C65.7,27.7,65.1,27.9,64.7,28.1z M90.9,32.5H80.5c1.9,3.9,5.3,6.6,10.4,8c-0.1,0.2-0.3,0.5-0.5,0.9
			c-0.3,0.4-0.5,0.6-0.7,0.8c-5.4-2-8.8-4.8-10.3-8.5c-0.9,3.6-4.7,6.5-11.3,8.8c-0.3-0.5-0.6-1.1-1.1-1.7c6.5-2,10.2-4.7,11.1-8.3
			H68v-1.6h2.9v-10c-0.3,0.2-0.5,0.4-0.7,0.7c-0.4-0.4-0.9-0.9-1.3-1.3c3-2.9,5.3-6.2,6.9-9.9l1.9,0.4c-0.2,0.4-0.4,0.9-0.8,1.6
			c-0.4,0.7-0.8,1.2-0.9,1.6h10.1v1.7l-3.9,5.1h6.1v10.1h2.5V32.5z M94.7,34.8c0.5-0.1,1.3-0.3,2.3-0.7c0.9-0.3,1.6-0.4,2-0.5V20.5
			h-3.9v-1.6H99v-8.4h1.7v8.4h3.6v1.6h-3.6V33c1.2-0.4,2.4-0.8,3.6-1.2c0,0.9,0,1.5,0.1,1.7c-3.5,1.1-6.6,2.1-9.3,3.1L94.7,34.8z
			 M126.6,39.3c-0.4,1.7-1.2,2.5-2.4,2.5c-2.1,0.2-3.8-1.7-5.1-5.6c-1.6,1.9-3.5,3.8-5.7,5.7c-0.7-0.7-1.2-1.2-1.5-1.3
			c2.7-2,4.9-4.2,6.7-6.5c-0.9-3-1.5-8.1-1.9-15.2h-9.1v5.2h6.4c0,4.5-0.1,7.8-0.3,9.9c0,2.4-1.2,3.6-3.7,3.7h-2
			c0-0.4-0.1-0.9-0.4-1.7h2.1c1.6,0.1,2.4-0.7,2.4-2.3c0.1-1.3,0.1-4,0.1-7.9h-4.7c-0.1,4.4-0.4,7.7-0.9,9.9c-0.6,2-1.8,4.3-3.6,6.7
			c-0.4-0.4-0.8-0.8-1.5-1.2c1.9-2.1,3-4.2,3.5-6.1c0.5-2,0.8-5.2,0.8-9.6v-8.1h10.8c-0.1-0.7-0.1-1.9-0.1-3.5
			c-0.1-1.4-0.1-2.5-0.1-3.3h1.9c0,2.5,0,4.8,0.1,6.8h8.5v1.6h-8.5c0.3,5.2,0.8,9.6,1.5,13.2c1.7-2.7,3.1-5.7,4.3-9.1l1.7,0.7
			c-1.8,4.5-3.6,8.1-5.5,10.8c1,3.6,2.1,5.5,3.5,5.6c0.5,0,0.9-0.5,1.1-1.5c0.3-1,0.5-2.5,0.7-4.7c0.6,0.4,1.2,0.6,1.7,0.7
			C127.1,36.8,126.8,38.3,126.6,39.3z M163,17.3h-14.9v5.3h12.1v12c0.1,2.6-1.2,3.9-4,3.9h-4c-0.1-0.4-0.2-1-0.4-1.7
			c0.5,0,1.3,0,2.4,0.1h1.5c1.9,0.1,2.8-0.8,2.7-2.7v-9.7h-10.3v18h-1.9v-18h-10.1V39h-1.9V22.6h12v-5.3h-14.8v-1.7h15.7
			c-0.4-0.7-0.9-1.7-1.6-2.9c-0.4-0.6-0.6-1.1-0.8-1.5l1.7-0.8c0.8,1.2,1.7,2.7,2.7,4.4l-1.6,0.8H163V17.3z M72.7,30.9h5.9v-0.3
			c0.2-1.3,0.3-2.4,0.3-3.3v-4.9h-6.1V30.9z M74.9,15.6c-0.9,1.3-2.2,3.1-4,5.2h9.2l4-5.2H74.9z"/>
	</g>
</g>
</svg>
