<?xml version="1.0" encoding="utf-8"?>
<!-- Generator: Adobe Illustrator 18.0.0, SVG Export Plug-In . SVG Version: 6.00 Build 0)  -->
<!DOCTYPE svg PUBLIC "-//W3C//DTD SVG 1.1//EN" "http://www.w3.org/Graphics/SVG/1.1/DTD/svg11.dtd">
<svg version="1.1" id="图层_1" xmlns="http://www.w3.org/2000/svg" xmlns:xlink="http://www.w3.org/1999/xlink" x="0px" y="0px"
	 viewBox="0 0 18 18" enable-background="new 0 0 18 18" xml:space="preserve">
<path fill="#E45B50" d="M16.2,1.8h-0.8V1.5c0-0.7-0.6-1.3-1.3-1.3h0c-0.7,0-1.3,0.6-1.3,1.3v0.2H5.3V1.5c0-0.7-0.6-1.3-1.3-1.3h0
	c-0.7,0-1.3,0.6-1.3,1.3v0.2H1.8C1,1.8,0.4,2.4,0.4,3.1V16c0,0.7,0.6,1.3,1.3,1.3h14.5c0.7,0,1.3-0.6,1.3-1.3V3.1
	C17.6,2.4,17,1.8,16.2,1.8L16.2,1.8z M13.2,1.5c0-0.4,0.4-0.8,0.8-0.8h0c0.4,0,0.8,0.4,0.8,0.8v2.4c0,0.4-0.4,0.8-0.8,0.8h0
	c-0.4,0-0.8-0.4-0.8-0.8V1.5L13.2,1.5z M3.1,1.5c0-0.4,0.4-0.8,0.8-0.8h0c0.4,0,0.8,0.4,0.8,0.8v2.4c0,0.4-0.4,0.8-0.8,0.8h0
	c-0.4,0-0.8-0.4-0.8-0.8V1.5L3.1,1.5z M16.2,16.3H1.8c-0.1,0-0.3-0.1-0.3-0.3V6.5h15V16C16.5,16.1,16.4,16.3,16.2,16.3L16.2,16.3z
	 M3.5,8.5h2.5v1.2H3.5V8.5L3.5,8.5z M7.8,8.5h2.5v1.2H7.8V8.5L7.8,8.5z M12.1,8.5h2.4v1.2h-2.4V8.5L12.1,8.5z M3.5,10.9h2.5v1.2H3.5
	V10.9L3.5,10.9z M7.8,10.9h2.5v1.2H7.8V10.9L7.8,10.9z M12.1,10.9h2.4v1.2h-2.4V10.9L12.1,10.9z M3.5,13.4h2.5v1.3H3.5V13.4
	L3.5,13.4z M7.8,13.4h2.5v1.3H7.8V13.4L7.8,13.4z M12.1,13.4h2.4v1.3h-2.4V13.4L12.1,13.4z M12.1,13.4"/>
</svg>
