<?xml version="1.0" encoding="utf-8"?>
<!-- Generator: Adobe Illustrator 18.0.0, SVG Export Plug-In . SVG Version: 6.00 Build 0)  -->
<!DOCTYPE svg PUBLIC "-//W3C//DTD SVG 1.1//EN" "http://www.w3.org/Graphics/SVG/1.1/DTD/svg11.dtd">
<svg version="1.1" id="图层_1" xmlns="http://www.w3.org/2000/svg" xmlns:xlink="http://www.w3.org/1999/xlink" x="0px" y="0px"
	 viewBox="0 0 51 51" enable-background="new 0 0 51 51" xml:space="preserve">
<path fill="#CCCCCC" d="M50.5,49.5c-3.5-0.1-18.8-0.1-22.8-0.1C11.5,49.4,1.5,38.4,1.5,25c0-13.5,11-24.4,24.5-24.4
	c13.5,0,24.5,10.9,24.5,24.4c0,4.6-1.7,10-4.3,14.1C42.4,45.6,50.2,44.5,50.5,49.5L50.5,49.5z M15.5,21.5c-1.9,0-3.5,1.6-3.5,3.5
	c0,1.9,1.6,3.5,3.5,3.5c1.9,0,3.5-1.6,3.5-3.5C19,23.1,17.4,21.5,15.5,21.5L15.5,21.5z M26,21.5c-1.9,0-3.5,1.6-3.5,3.5
	c0,1.9,1.6,3.5,3.5,3.5c1.9,0,3.5-1.6,3.5-3.5C29.5,23.1,27.9,21.5,26,21.5L26,21.5z M36.5,21.5c-1.9,0-3.5,1.6-3.5,3.5
	c0,1.9,1.6,3.5,3.5,3.5c1.9,0,3.5-1.6,3.5-3.5C40,23.1,38.4,21.5,36.5,21.5L36.5,21.5z M36.5,21.5"/>
</svg>
