<?xml version="1.0" encoding="utf-8"?>
<!-- Generator: Adobe Illustrator 18.0.0, SVG Export Plug-In . SVG Version: 6.00 Build 0)  -->
<!DOCTYPE svg PUBLIC "-//W3C//DTD SVG 1.1//EN" "http://www.w3.org/Graphics/SVG/1.1/DTD/svg11.dtd">
<svg version="1.1" id="图层_1" xmlns="http://www.w3.org/2000/svg" xmlns:xlink="http://www.w3.org/1999/xlink" x="0px" y="0px"
	 viewBox="0 0 42.5 39.7" enable-background="new 0 0 42.5 39.7" xml:space="preserve">
<path fill="#FFFFFF" d="M25.4,7.3c-4.1,0-8.3,0-12.4,0c-1.8,0-3.4-0.1-3.5-2.6c0-2.4,1.4-2.7,3.3-2.7c8.4,0,16.7,0,25.1,0
	c1.9,0,3.2,0.6,3.3,2.6c0,2.2-1.3,2.8-3.4,2.8C33.7,7.3,29.6,7.3,25.4,7.3L25.4,7.3z M25.3,12.6c4.3,0,8.6,0,13,0c1.9,0,3,0.7,3,2.6
	c0,1.9-1.2,2.6-3,2.6c-8.6,0-17.1,0-25.7,0c-1.9,0-3.1-0.5-3-2.7c0.1-2.2,1.4-2.4,3.1-2.4C16.8,12.6,21,12.6,25.3,12.6L25.3,12.6z
	 M25.7,23.3c4.2,0,8.3,0,12.4,0c1.8,0,3,0.6,3.1,2.5c0,2.1-1.2,2.7-3.1,2.7c-8.5-0.1-16.9,0-25.4,0c-1.8,0-3.2-0.2-3.1-2.6
	c0-2.4,1.5-2.5,3.2-2.5C17.1,23.3,21.4,23.3,25.7,23.3L25.7,23.3z M25.2,39c-4.2,0-8.5,0-12.7,0c-1.6,0-2.8-0.2-2.9-2.2
	c-0.1-2,0.7-2.9,2.6-2.9c8.8,0,17.6,0,26.4,0c1.8,0,2.7,1,2.6,2.7c-0.1,1.7-1,2.5-2.8,2.4C34,38.9,29.6,39,25.2,39L25.2,39z
	 M3.7,7.3c-2,0-2.9-0.8-2.9-2.8c0-1.9,1-2.5,2.7-2.5c1.9,0,2.7,0.8,2.7,2.8C6.3,6.7,5.2,7.2,3.7,7.3L3.7,7.3z M3.6,38.9
	c-1.8,0.2-2.7-0.6-2.7-2.4c-0.1-2.1,1.1-2.7,2.8-2.7c1.6,0,2.7,0.5,2.7,2.5C6.3,38.4,5.4,39.2,3.6,38.9L3.6,38.9z M6.2,15.3
	c0.3,2-0.9,2.5-2.6,2.5c-1.8,0-2.9-0.6-2.8-2.6c0.1-1.9,1-2.5,2.7-2.5C5.3,12.6,6.5,13.2,6.2,15.3L6.2,15.3z M3.5,28.3
	c-1.7,0.1-2.6-0.5-2.6-2.4c0-2,1-2.6,2.8-2.6c1.9,0,2.7,0.8,2.6,2.8C6.3,28.1,5.1,28.4,3.5,28.3L3.5,28.3z M3.5,28.3"/>
</svg>
