<?xml version="1.0" encoding="utf-8"?>
<!-- Generator: Adobe Illustrator 18.0.0, SVG Export Plug-In . SVG Version: 6.00 Build 0)  -->
<!DOCTYPE svg PUBLIC "-//W3C//DTD SVG 1.1//EN" "http://www.w3.org/Graphics/SVG/1.1/DTD/svg11.dtd">
<svg version="1.1" id="图层_1" xmlns="http://www.w3.org/2000/svg" xmlns:xlink="http://www.w3.org/1999/xlink" x="0px" y="0px"
	 viewBox="0 0 51 51" enable-background="new 0 0 51 51" xml:space="preserve">
<path fill="#E45B50" d="M46.8,5h-2.4V4.2c0-2.2-1.8-4-3.9-4h-0.1c-2.2,0-3.9,1.8-3.9,4V5H14.6V4.2c0-2.2-1.8-4-3.9-4h-0.1
	c-2.2,0-3.9,1.8-3.9,4V5H4.2c-2.2,0-3.9,1.8-3.9,4v37.8c0,2.2,1.8,4,3.9,4h42.6c2.2,0,3.9-1.8,3.9-4V8.9C50.7,6.7,48.9,5,46.8,5
	L46.8,5z M38,4.2c0-1.3,1.1-2.4,2.4-2.4h0.1c1.3,0,2.4,1.1,2.4,2.4v7c0,1.3-1.1,2.4-2.4,2.4h-0.1c-1.3,0-2.4-1.1-2.4-2.4V4.2L38,4.2
	z M8.2,4.2c0-1.3,1.1-2.4,2.4-2.4h0.1C12,1.9,13,2.9,13,4.2v7c0,1.3-1.1,2.4-2.4,2.4h-0.1c-1.3,0-2.4-1.1-2.4-2.4V4.2L8.2,4.2z
	 M46.8,47.6H4.2c-0.4,0-0.8-0.4-0.8-0.8V18.9h44.1v27.8C47.6,47.2,47.2,47.6,46.8,47.6L46.8,47.6z M9.2,24.6h7.3v3.6H9.2V24.6
	L9.2,24.6z M21.9,24.6h7.2v3.6h-7.2V24.6L21.9,24.6z M34.6,24.6h7.1v3.6h-7.1V24.6L34.6,24.6z M9.2,31.9h7.3v3.5H9.2V31.9L9.2,31.9z
	 M21.9,31.9h7.2v3.5h-7.2V31.9L21.9,31.9z M34.6,31.9h7.1v3.5h-7.1V31.9L34.6,31.9z M9.2,39h7.3v3.7H9.2V39L9.2,39z M21.9,39h7.2
	v3.7h-7.2V39L21.9,39z M34.6,39h7.1v3.7h-7.1V39L34.6,39z M34.6,39"/>
</svg>
