<?xml version="1.0" encoding="utf-8"?>
<!-- Generator: Adobe Illustrator 18.0.0, SVG Export Plug-In . SVG Version: 6.00 Build 0)  -->
<!DOCTYPE svg PUBLIC "-//W3C//DTD SVG 1.1//EN" "http://www.w3.org/Graphics/SVG/1.1/DTD/svg11.dtd">
<svg version="1.1" id="图层_1" xmlns="http://www.w3.org/2000/svg" xmlns:xlink="http://www.w3.org/1999/xlink" x="0px" y="0px"
	 viewBox="0 0 53.9 59.5" enable-background="new 0 0 53.9 59.5" xml:space="preserve">
<path fill="#E45B50" d="M36.9,7.4l8.7,8.7L16.4,45.3l-8.7-8.7L36.9,7.4L36.9,7.4z M6,38.3l8.7,8.7L2.9,50.3L6,38.3z M42.3,2.1
	l-3.6,3.6l8.7,8.7l3.6-3.6c1.3-1.3,1.3-3.4,0-4.6l-4-4C45.7,0.8,43.6,0.8,42.3,2.1L42.3,2.1z M46,57.2c0-1-0.8-1.8-1.8-1.8H2.7
	c-1,0-1.8,0.8-1.8,1.8c0,1,0.8,1.8,1.8,1.8h41.4C45.2,59,46,58.2,46,57.2L46,57.2L46,57.2z M46,57.2"/>
</svg>
