<?xml version="1.0" encoding="utf-8"?>
<!-- Generator: Adobe Illustrator 18.0.0, SVG Export Plug-In . SVG Version: 6.00 Build 0)  -->
<!DOCTYPE svg PUBLIC "-//W3C//DTD SVG 1.1//EN" "http://www.w3.org/Graphics/SVG/1.1/DTD/svg11.dtd">
<svg version="1.1" id="图层_1" xmlns="http://www.w3.org/2000/svg" xmlns:xlink="http://www.w3.org/1999/xlink" x="0px" y="0px"
	 viewBox="0 0 53.9 51" enable-background="new 0 0 53.9 51" xml:space="preserve">
<path fill="#E45B50" d="M27.3,0.7c1.1,0.2,1.7,1.1,2.4,1.7C36.9,9.2,44,16,51.2,22.8c0.5,0.5,1.1,1,1.6,1.5c0.8,0.8,0.7,1.9-0.1,2.7
	c-0.7,0.7-1.7,0.6-2.5-0.1c-7.3-6.9-14.6-13.8-22-20.7c-1.4-1.3-1-1.3-2.4,0c-6,5.5-11.9,11-17.9,16.6c-0.2,0.2-0.4,0.5-0.6,0.7
	c0.3,0.1,0.6,0.2,0.9,0.2c0.6,0,1.3,0,1.9,0c1.2,0,2.2,0.6,2.2,2.2c0,6.7,0,13.3,0,20c0,0.9,0.1,0.9,1,0.9c9.1,0,18.2,0,27.3,0
	c0.9,0,1,0,1-1c0-5.8,0-11.5,0-17.3c0-0.8,0.1-1.4,0.8-1.9c1.2-0.7,2.6,0.1,2.7,1.3c0,0.4,0.1,0.9,0.1,1.3c0,5.5,0,11,0,16.5
	c0,0.9,0,1.9,0,2.8c-0.1,1.3-0.6,1.8-1.9,1.8c-3.5,0-7,0-10.5,0c-7.2,0-14.4,0-21.7,0c-0.8,0-1.6-0.1-2-0.9C9,49,9,48.5,9,48
	c0-6.6,0-13.2,0-19.8c0-1,0-1-1.1-1c-1.7,0-3.5,0-5.2,0c-0.9,0-1.6-0.3-1.9-1.1c-0.3-0.7,0-1.6,0.7-2.2c1.9-1.8,3.8-3.5,5.7-5.2
	c4.4-4.1,8.8-8.2,13.2-12.3c1.8-1.7,3.6-3.4,5.5-5.1c0.3-0.3,0.8-0.4,1.1-0.6C27,0.7,27.2,0.7,27.3,0.7L27.3,0.7z M25.8,25.7
	c0,0.6-0.5,1-1,1H20c-0.6,0-1-0.5-1-1v-4.8c0-0.6,0.5-1,1-1h4.8c0.6,0,1,0.5,1,1V25.7L25.8,25.7z M35.8,25.7c0,0.6-0.5,1-1,1H30
	c-0.6,0-1-0.5-1-1v-4.8c0-0.6,0.5-1,1-1h4.8c0.6,0,1,0.5,1,1V25.7L35.8,25.7z M25.8,35.4c0,0.6-0.5,1-1,1H20c-0.6,0-1-0.5-1-1v-4.8
	c0-0.6,0.5-1,1-1h4.8c0.6,0,1,0.5,1,1V35.4L25.8,35.4z M35.8,35.4c0,0.6-0.5,1-1,1H30c-0.6,0-1-0.5-1-1v-4.8c0-0.6,0.5-1,1-1h4.8
	c0.6,0,1,0.5,1,1V35.4L35.8,35.4z M35.8,35.4"/>
</svg>
