<?xml version="1.0" encoding="utf-8"?>
<!-- Generator: Adobe Illustrator 18.0.0, SVG Export Plug-In . SVG Version: 6.00 Build 0)  -->
<!DOCTYPE svg PUBLIC "-//W3C//DTD SVG 1.1//EN" "http://www.w3.org/Graphics/SVG/1.1/DTD/svg11.dtd">
<svg version="1.1" id="图层_1" xmlns="http://www.w3.org/2000/svg" xmlns:xlink="http://www.w3.org/1999/xlink" x="0px" y="0px"
	 viewBox="0 0 96.4 96.4" enable-background="new 0 0 96.4 96.4" xml:space="preserve">
<path fill="#FFAD39" d="M26.1,72.2C20.9,66.5,9.7,53.3,9.7,40c0-21.7,17.4-39.4,38.7-39.4c21.4,0,38.7,17.6,38.7,39.4
	c0,13.8-12,26.9-17.6,33.1C64,79.2,48.5,95.6,48.5,95.6S31.4,77.9,26.1,72.2L26.1,72.2z M71.3,26.6L71.3,26.6
	c-1.8-1.8-4.7-1.8-6.5,0L43.7,48.1L32.2,36.3c-1.8-1.8-4.7-1.8-6.6,0l0,0c-1.8,1.8-1.8,4.8,0,6.7l13.6,13.8c0.2,0.5,0.5,1.1,1,1.5
	l0,0c1,1,2.2,1.4,3.5,1.3c1.3,0.1,2.6-0.4,3.5-1.3l0,0c0.4-0.4,0.8-1,1-1.6l23.1-23.4C73.1,31.5,73.1,28.5,71.3,26.6L71.3,26.6
	L71.3,26.6z"/>
</svg>
