<?xml version="1.0" encoding="utf-8"?>
<!-- Generator: Adobe Illustrator 18.0.0, SVG Export Plug-In . SVG Version: 6.00 Build 0)  -->
<!DOCTYPE svg PUBLIC "-//W3C//DTD SVG 1.1//EN" "http://www.w3.org/Graphics/SVG/1.1/DTD/svg11.dtd">
<svg version="1.1" id="图层_1" xmlns="http://www.w3.org/2000/svg" xmlns:xlink="http://www.w3.org/1999/xlink" x="0px" y="0px"
	 viewBox="0 0 96.4 96.4" enable-background="new 0 0 96.4 96.4" xml:space="preserve">
<path fill="#49BFDB" d="M48.5,0.3C22.9,0.3,2.2,21.7,2.2,48c0,26.3,20.7,47.7,46.3,47.7c25.6,0,46.3-21.4,46.3-47.7
	C94.8,21.7,74.1,0.3,48.5,0.3L48.5,0.3L48.5,0.3z M74,62.9c-1.2,1.1-3.3-0.1-5.2-2.9c-0.9,2.4-2,4.6-3.3,6.6c2.8,1,4.6,2.6,4.6,4.4
	c0,3.1-5.4,5.6-12,5.6c-3.9,0-7.4-0.9-9.6-2.3c-2.2,1.4-5.7,2.3-9.6,2.3c-6.6,0-12-2.5-12-5.6c0-1.8,1.8-3.4,4.6-4.4
	c-1.3-2-2.4-4.2-3.3-6.6c-2,2.8-4,4.1-5.2,2.9c-1.6-1.6-1-7.2,1.4-12.5c0.6-1.2,1.2-2.3,1.8-3.2c0.3-15.4,10.2-27.8,22.3-27.8h0
	c12.1,0,21.9,12.3,22.3,27.8c0.6,0.9,1.2,2,1.8,3.2C75,55.7,75.7,61.3,74,62.9L74,62.9L74,62.9z M74,62.9"/>
</svg>
