<?xml version="1.0" encoding="utf-8"?>
<!-- Generator: Adobe Illustrator 18.0.0, SVG Export Plug-In . SVG Version: 6.00 Build 0)  -->
<!DOCTYPE svg PUBLIC "-//W3C//DTD SVG 1.1//EN" "http://www.w3.org/Graphics/SVG/1.1/DTD/svg11.dtd">
<svg version="1.1" id="图层_1" xmlns="http://www.w3.org/2000/svg" xmlns:xlink="http://www.w3.org/1999/xlink" x="0px" y="0px"
	 viewBox="0 0 779.5 76.5" enable-background="new 0 0 779.5 76.5" xml:space="preserve">
<g>
	<g>
		<path fill="#666666" d="M73.8,22.5c-0.4,0-0.7,0.4-0.9,1.2c-0.4,1.6-1.1,5.5-1.9,11.6c-0.9,6.1-1.4,10.6-1.8,13.6
			c-0.1,2-0.3,3.2-0.5,3.6c-0.2,0.5-0.6,1-1.2,1.6c-0.9,0.8-2.2,1.5-3.7,2.1c-1.5,0.6-2.9,1.2-4.1,1.8c-1.2,0.6-2.2,1-3.1,1.2
			c-0.9,0.2-2.6,0.8-5.1,1.8c-2.6,1-4.7,1.5-6.4,1.5c-2.5,0-4.2-0.7-5.1-2c-0.9-1.3-1.5-3.9-1.8-7.9l-0.3-4.1l1.6-1.5
			c1.1-1,2.3-2,3.6-2.9c1.3-0.9,3-2.4,5.2-4.3c2.2-1.9,3.9-3.2,5.1-4c0.8-0.5,1.3-0.9,1.5-1.1c0.2-0.3,0.2-0.7,0-1.4
			c-0.1-0.6-0.1-1.2,0-1.6c0.2-0.4,0.6-1.1,1.2-2c2.8-3.9,3.7-7.5,2.7-10.7c-0.8-2.4-1.5-3.9-2.3-4.6c-0.8-0.7-1.8-0.9-3.2-0.5
			c-1.1,0.3-3.5,2.2-7.2,5.7c-2.6,2.5-5.9,5.6-10,9.3c-4.1,3.8-6.7,6-7.8,6.9c-0.6,0.5-1.1,0.7-1.3,0.6c-0.3-0.2-0.5-1.4-0.5-3.6
			c0-2.2,0.2-4.2,0.5-5.9l0.5-2.9l3.2-1.6c1.8-0.8,2.9-1.4,3.5-1.8c0.5-0.4,0.8-0.8,0.8-1.3c0-1.1-1.4-1.1-4.1,0
			c-1.9,0.8-3.1,1.1-3.6,0.9c-0.5-0.1-0.7-0.8-0.6-2c0.1-1.2,0.3-1.9,0.5-2.2c0.3-0.3,0.7-0.2,1.4,0.3c0.6,0.4,1.1,0.5,1.5,0.4
			c0.3-0.1,0.5-0.5,0.5-1c0-0.4-0.7-1.6-2.1-3.5c-1.4-1.9-2.3-2.9-2.8-3.1c-0.4-0.2-0.7-0.3-0.9-0.2c-0.2,0.1-0.4,0.3-0.8,0.9
			c-0.4,0.6-0.7,2.8-0.7,6.5V17c0,2.8-0.2,4.6-0.7,5.4c-0.5,0.7-2.1,1.8-5,3.2c-0.3,0.1-0.5,0.3-0.7,0.4c-3,1.5-5,2.5-5.8,3
			c-0.9,0.6-2.4,1.5-4.7,2.8c-3.6,2.1-4.8,3.8-3.5,5c0.3,0.3,0.6,0.4,0.9,0.3C4.4,37,5,36.6,6,36c1.4-1,2.6-1.8,3.6-2.2
			c1-0.5,3.1-1.7,6.5-3.7c3.3-2,5.4-3,6.3-3.1l1.1-0.1l0.1,6.7l0.1,6.8l-2.5,2.7c-2.9,3.2-5.3,6.1-7.1,8.8c-1.8,2.6-2.7,4.3-2.7,5.2
			c0,0.5,1.6,2.4,4.9,5.7c3.3,3.3,5.3,5,6,5.2c1.6,0.4,3,0,4.3-1.2l0.9-1l-0.2-11.6c-0.1-7.7,0-11.9,0.3-12.5c0.5-0.9,1.7-2.2,3.5-4
			c1.8-1.8,2.9-2.6,3.2-2.6c0.4,0.2,0.6,0.8,0.6,1.9c-0.1,4.6,0,9.5,0.2,14.6c0.2,5.1,0.4,8.1,0.7,8.8c0.8,2.8,2.7,4.6,5.8,5.4
			c3,0.9,6.4,0.6,10.2-0.9l5.6-2.1l5.8-2.2c1.8-0.7,3.6-1.5,5.3-2.3c1.7-0.9,2.8-1.3,3.3-1.5c0.5-0.1,0.9-0.7,1.4-1.8
			c0.5-1.1,0.6-3,0.3-5.7c-0.3-2.7-0.3-4.8,0-6.2c0.3-1.4,0.6-4,1-7.9l0.9-8.1c0.1-1.3,0.1-2.4-0.2-3.3
			C74.7,22.9,74.3,22.5,73.8,22.5z M49.5,21.2c1.8-1.5,3-2.3,3.8-2.5c0.8-0.2,1.3,0.2,1.6,1.1c0.5,1.8,0.4,3.9-0.3,6.2
			c-0.7,2.3-1.8,4-3.4,5.1c-1,0.8-1.5,1.6-1.5,2.6c0,0.9-0.4,1.7-1.1,2.2c-0.4,0.3-0.9,0.5-1.3,0.5c-0.8,0.1-1-0.3-0.7-1
			c0.2-0.5,0.5-2,0.9-4.4c0.3-1.7,0.5-2.8,0.4-3.3c0-0.5-0.3-1.1-0.7-1.9c-0.6-1.1-0.9-1.7-0.9-1.8C46.3,23.9,47.3,22.9,49.5,21.2z
			 M38.3,37.1c0.2-2.5,0.3-4.1,0.3-5c0-0.9,0.7-1.9,2-3.1c1.1-1,1.9-1.6,2.4-1.7c0.5-0.1,0.8,0.2,1.1,0.9c0.2,0.6,0.2,1.8,0,3.7
			c-0.2,1.9-0.5,3.7-1,5.3c-0.3,1.2-0.9,2.3-1.6,3.4c-0.8,1-1.4,1.6-1.9,1.6c-0.6,0-0.9-0.4-1.1-1.1C38.2,40.2,38.2,38.9,38.3,37.1z
			 M23.7,62.8c-0.3,0.8-0.9,1-2,0.7c-0.6-0.3-1.7-1.1-3.1-2.6c-1.5-1.5-2.3-2.5-2.5-3.1c-0.3-0.8,0.1-2.2,1-4.2
			c0.9-2,2.1-3.9,3.6-5.7c1.2-1.3,1.9-1.9,2.2-1.8c0.3,0.1,0.5,0.8,0.7,2c0.2,1.2,0.3,4,0.4,8.3C24.1,59.9,23.9,62.1,23.7,62.8z
			 M119.6,23.7c4.7-0.1,7.5-0.2,8.4-0.5c0.9-0.3,1.7-0.5,2.5-0.7c0.8-0.2,1.2-0.6,1.2-1.2c0-0.9-0.3-1.5-0.9-1.8
			c-0.6-0.3-1.5-0.2-2.5,0.3c-0.8,0.3-3.3,0.5-7.5,0.7c-3.8,0.1-6.1,0.3-7,0.4c-0.9,0.1-1.5,0.5-1.8,1c-0.3,0.6-0.3,1-0.3,1.2
			C112,23.6,114.6,23.8,119.6,23.7z M148.9,40.3c-0.8-0.6-1.4-0.9-1.8-0.9s-1-0.1-1.6-0.2c-0.6-0.1-1.6-0.1-3,0.2
			c-7,1.4-14.5,3.8-22.6,7.3c-7.1,3.1-11.9,5.1-14.4,6.1c-2.5,1-4.1,1.5-4.9,1.5c-1,0-1.6,0.5-1.9,1.5c-0.3,1,0.1,1.6,0.9,1.9
			c0.6,0.3,1.6,0.1,3-0.3c1.4-0.5,4.3-1.7,8.8-3.6c8.1-3.5,13.7-5.8,16.7-6.9c3-1.1,6.5-2.1,10.3-3c2.3-0.5,3.9-0.7,4.7-0.6
			c0.9,0.1,1.8,0.6,2.7,1.6c0.7,0.8,1.2,1.2,1.4,1.2c0.2,0.1,0.5-0.1,0.9-0.5c0.4-0.6,0.9-1.4,1.3-2.6c0.3-0.8,0.3-1.4,0.3-1.6
			C149.8,41.1,149.5,40.7,148.9,40.3z M199.1,44.7c-0.3,0-1.6,1.2-3.9,3.7c-2.3,2.5-3.7,4.1-4.4,5c-1,1.3-2.6,3.3-4.7,5.8
			c-2.1,2.5-3.3,3.9-3.6,4.2c-0.5,0.3-1,0.5-1.6,0.5c-0.5,0-1.5,0.6-3,1.7c-1.5,1.1-2.4,1.9-2.6,2.5c-0.2,0.5,0,1.1,0.6,1.6
			c0.6,0.5,1.3,0.8,2.1,0.8c1.1,0,2.7-1.1,5-3.4c2.2-2.3,5.7-6.4,10.5-12.3l4.2-5.3c0.9-1.1,1.5-2,1.8-2.6c0.3-0.4,0.3-0.9,0.2-1.3
			C199.6,44.9,199.4,44.7,199.1,44.7z M237.7,57.9c-1.8,0.5-3.7,0.8-5.9,1c-2.2,0.2-3.7,0.5-4.5,0.9c-0.8,0.4-1.8,0.6-2.8,0.8
			c-1,0.2-1.7,0.1-1.8-0.1c-0.2-0.3,0.5-1.3,2.1-2.8c1.3-1.4,2.8-3.3,4.3-5.9c1.5-2.5,2.4-4.4,2.6-5.5c0.3-1.3-0.1-2.2-1-2.7
			c-0.9-0.5-2.4-0.7-4.6-0.6c-1.1,0.1-1.7-0.2-1.9-0.8c-0.2-0.6-0.2-1.9,0-4c0.6-4.7,1.5-7.6,2.6-8.5c1.1-1,1.1-2.1,0.2-3.4
			c-0.4-0.6-0.6-1.2-0.6-1.8c0-0.6-0.4-1.2-1.1-1.8c-0.7-0.6-1.1-0.9-1.1-1.1c0-0.2,0.8-0.6,2.5-1.5c2.4-1.1,3.1-2.2,2.2-3.3
			c-0.3-0.4-0.7-0.6-1-0.5c-0.4,0-1.2,0.3-2.6,0.9c-2.2,1-4.6,2.2-7.3,3.6c-2.7,1.4-4.2,2.2-4.5,2.6c-0.4,0.4-0.7,0.8-0.7,1
			c0,0.3,0.2,0.6,0.7,0.9c0.4,0.4,0.9,0.6,1.5,0.4c0.6-0.2,2-0.7,4-1.7c2-0.9,3.2-1.4,3.6-1.4c0.5,0,0.7,0.6,0.6,1.7
			c-0.3,2.2-0.8,4-1.7,5.3c-0.9,1.3-1.9,1.9-3.2,1.9c-0.7,0-1.8,0.6-3.3,1.7c-1.5,1.1-2.2,2-2.2,2.6c0,2,1.7,2.2,5,0.7
			c1.5-0.7,2.4-1,2.7-1c0.1,0,0.2,0.4,0.2,1.3c0,0.9-0.1,1.9-0.2,3c-0.1,1.2-0.3,2.1-0.6,2.9c-0.2,0.7-0.5,1.2-0.9,1.5
			c-0.4,0.3-1.4,0.8-2.9,1.4c-0.7,0.3-1.3,0.6-1.9,0.9c-3.4,1.5-4.4,2.8-3,3.9c0.4,0.3,1.5,0.1,3.4-0.6c1.9-0.7,3.1-1.1,3.7-1
			c0.4,0.1,0.7,0.2,0.8,0.5c0.1,0.3,0.1,1.1,0,2.4c-0.1,1.8-0.4,3.6-0.8,5.4c-0.3,1.2-0.5,2.1-0.8,2.6c-0.3,0.5-0.9,1.2-1.8,2
			c-2.1,1.8-3.3,3-3.7,3.6c-0.4,0.6-0.3,1.1,0.3,1.7c0.3,0.3,1,0.5,1.9,0.5c1,0,1.8-0.2,2.3-0.5c0.6-0.3,2.4-0.9,5.5-1.7
			c3-0.8,5.3-1.4,6.9-1.6c2.2-0.4,4.5-0.6,6.8-0.8c2.3-0.2,3.8-0.1,4.4,0c0.6,0.2,1.2,0.2,1.7,0c0.5-0.2,0.8-0.6,0.8-1
			c0-0.3,0.3-0.8,0.9-1.5c0.4-0.5,0.6-0.9,0.6-1c0-0.2-0.1-0.5-0.4-0.9C242.5,57.1,240.6,56.9,237.7,57.9z M222.7,51.3
			c0.2-2.2,0.4-3.5,0.8-3.9c0.3-0.4,0.9-0.6,1.9-0.5c0.9,0,1.6,0.2,1.9,0.6c0.5,0.6-0.3,2.4-2.4,5.2c-1,1.4-1.7,2-2,1.8
			C222.5,54.3,222.5,53.2,222.7,51.3z M207.4,10.9c-0.5,0.5-0.8,1.2-0.8,1.9c0,0.8-1,3.2-3,7.2c-2.7,5.4-5.2,9.8-7.5,13.2
			c-2,3-2.6,4.8-1.8,5.2c0.9,0.6,1.8,0,2.8-1.8c0.6-1.1,1.7-2.7,3.2-4.8c1.5-2.1,2.6-3.2,3.3-3.2c0.5,0,0.8,0,0.8,0.1
			c0.3,0.2,0.1,3.5-0.5,9.9c-1.1,12.8-1.9,20.6-2.4,23.4c-0.5,3-0.8,4.8-0.8,5.4c0,0.6,0.1,1.1,0.5,1.4c0.4,0.4,1,0.4,1.7,0.1
			c1-0.6,1.7-1.5,2-2.7c0.3-1.3,0.6-3.4,0.6-6.4c0.1-3.7,0.2-6,0.5-7.1c0.3-1,0.4-2.8,0.5-5.2c0-2.4,0.2-4.7,0.4-7
			c0.8-7.4,1.1-11.9,1-13.3c-0.1-1.4-0.6-2.3-1.7-2.5c-0.7-0.2-1-0.4-1-0.7c0-0.3,0.5-1.4,1.5-3.5c1-2.1,1.8-4.1,2.6-6
			c0.6-1.4,0.9-2.3,0.9-2.6c0-0.3-0.1-0.7-0.5-1.1C209,10.1,208.2,10,207.4,10.9z M179.8,41.8c1,0.3,2.4-0.1,4.4-1.1
			c0.4-0.3,0.8-0.4,1.1-0.5c0.3-0.1,0.6-0.2,0.8-0.2c0.2,0,0.3,0,0.4,0.1c0.1,0.1,0.1,0.3,0.1,0.5c0,0.5-0.5,1.9-1.6,4.3
			c-1.1,2.4-2,4.2-2.7,5.4c-0.9,1.5-1.3,2.7-1.2,3.6c0.2,0.9,0.9,1.4,2.1,1.4c0.6,0,1.4-0.3,2.2-0.9c0.9-0.6,2.4-1.9,4.6-3.9
			c2.1-2,3.6-3.3,4.5-3.8c1.2-0.9,1.4-1.7,0.5-2.5c-0.7-0.5-2.5,0.3-5.3,2.6c-1.5,1.1-2.2,1.6-2.4,1.4c-0.1-0.2,0.5-1.9,1.9-5
			c1.3-2.9,2-4.8,2.3-5.8c0.3-1,0.1-1.7-0.4-2.2c-1-1-2.6-0.8-4.6,0.8c-1.9,1.3-3,1.7-3.4,1.1c-0.2-0.3,1.3-3.5,4.5-9.7
			c3.2-6.2,4.9-9.8,5.1-10.8c0.4-1.6,0.7-2.8,0.7-3.4c0-0.6-0.1-1.1-0.5-1.5c-0.8-0.8-1.6-0.8-2.6-0.1c-0.5,0.4-0.7,1-0.5,1.9
			c0.2,0.9-0.7,3.3-2.5,7.2c-1.8,3.9-3.4,7.1-4.7,9.5c-2.5,4.6-3.8,7.6-4,9C178.4,40.7,178.8,41.6,179.8,41.8z M222.5,9.4
			c0.7,0.3,1.4,0.6,2.3,0.8c1.3,0.3,2.3,0.3,2.9,0.1c0.6-0.2,1-0.6,1.1-1.2c0.3-1.6-1.1-2.4-4.3-2.4c-1.9,0-3,0.2-3.3,0.6
			c-0.3,0.3-0.3,0.6,0,1C221.4,8.7,221.9,9,222.5,9.4z M310,45.1c0.1-0.3,0-0.7-0.2-1.1c-0.3-0.4-0.6-0.6-1-0.6
			c-0.3,0-2,0.8-5.2,2.5c-3.1,1.7-5.4,2.7-6.8,3.2c-1.4,0.5-3.3,1.3-5.6,2.6c-1.5,0.8-2.4,1.3-2.9,1.7c-0.5,0.4-0.7,0.8-0.7,1.1
			c0,0.8,0.2,1.2,0.7,1.3c0.5,0,1.4-0.3,2.7-0.9c1.6-0.9,3.2-1.6,4.9-2.1c2.1-0.6,4.9-1.8,8.4-3.7C307.7,47.2,309.6,45.9,310,45.1z
			 M294.8,40c0-1.6-0.9-2.5-2.8-2.5c-2.8,0-5.8,1.4-9,4.3c-0.9,0.9-1.7,1.5-2.1,1.8c-0.5,0.3-0.9,0.5-1.2,0.5
			c-0.3,0-0.5-0.2-0.5-0.7c0-0.5,0-1.1,0.1-1.9c0.3-3-0.3-4.9-1.8-5.5c-0.6-0.3-0.9-0.7-0.9-1.4c0.1-0.7,0.6-2.2,1.6-4.6
			c0.8-2,1.2-3.3,1.2-3.8c0-0.5,0.3-1.1,1-1.6c4.7-3.3,7.1-5.4,7-6.3c-0.3-1.6-1.7-1.4-4.4,0.8c-1.3,1.1-3.2,2.2-5.5,3.5
			c-2.4,1.3-3.9,1.9-4.7,1.9c-0.6,0-1.9,0.5-3.7,1.4c-1.9,0.9-2.8,1.7-2.9,2.4c-0.1,0.4,0,0.6,0.1,0.7c0.2,0.1,0.6,0.1,1.2,0.1
			c1.8,0,3.9-0.6,6.4-1.7c0.5-0.3,0.9-0.4,1.1-0.4c0.8,0.1,0.5,1.5-0.7,4.3c-1.3,2.8-3.8,9.4-7.5,19.6c-1.1,3-2,5.4-2.8,7.2
			c-0.8,1.9-1.4,3.3-1.8,4.4c-0.3,0.8-0.4,1.3-0.3,1.6c0,0.3,0.2,0.6,0.6,0.9c0.4,0.4,0.6,0.6,0.8,0.6c0.2,0,0.5-0.1,0.9-0.4
			c0.6-0.4,1.2-1.5,1.6-3.1c0.9-3,2.5-7.2,4.7-12.7l3-7.7c0.8-2.1,1.5-2.9,2.2-2.6c0.8,0.4,0.7,1.8-0.1,4c-1.3,3.6-2,5.8-2,6.7
			c0,0.3,0.3,0.8,0.9,1.3c0.4,0.4,0.7,0.6,0.9,0.5c0.3,0,0.8-0.2,1.7-0.6c1.2-0.6,2.1-1.4,2.8-2.3c1.6-2.1,3.5-3.9,5.8-5.6
			c2.3-1.6,3.7-2.2,4.2-1.7c0.3,0.3,0.2,1-0.5,2.1c-0.6,1.1-2,2.9-4,5.4c-1.7,2.1-2.8,3.4-3.2,3.8c-0.4,0.4-1,0.5-1.6,0.4
			c-0.7-0.1-1.1-0.1-1.3,0c-0.2,0.1-0.4,0.6-0.8,1.4c-1,2.6-1,4.2,0.1,4.7c0.6,0.3,1.3,0.3,1.9-0.2c0.6-0.4,1.8-1.6,3.5-3.5
			c3.2-3.6,5.8-6.8,7.6-9.6C293.9,43.4,294.8,41.3,294.8,40z M326.6,27.8c-0.5-0.6-0.9-0.9-1.3-1c-0.3-0.1-1.1-0.1-2.2,0
			c-1.7,0.1-3.2,0.6-4.5,1.5c-1.5,0.9-4.1,2.4-7.8,4.2c-3.8,1.9-5.9,2.8-6.4,2.8c-0.6,0-1.1-0.3-1.5-0.9c-0.4-0.6-0.7-1.2-0.7-1.8
			c0-0.6,0.2-1.1,0.5-1.4c0.3-0.3,0.9-0.6,1.7-0.8c0.6-0.2,1.6-1.1,3.1-2.6c1.5-1.5,2.8-3.1,3.8-4.6c1.2-1.7,2.5-3.8,3.9-6.3
			c1.4-2.5,2.2-4.3,2.6-5.4c0.4-0.9,0.6-1.6,0.5-1.9c0-0.3-0.2-0.7-0.6-1.2c-1.2-1.6-4.8-1.7-10.8-0.1c-5.7,1.5-9.1,3-10.2,4.6
			c-0.8,1.2-1.1,2-0.8,2.4c0.3,0.4,1,0.3,2.2-0.4c2.3-1.4,5.9-2.6,10.7-3.7c2.1-0.4,3.6-0.6,4.3-0.6c0.7,0,1.1,0.3,1.1,0.9
			c0,0.9-1.3,3.5-3.8,7.7c-2.6,4.3-4.4,6.9-5.5,7.9c-0.4,0.3-0.7,0.5-0.9,0.5c-0.5,0-0.8-1.1-0.8-3.4c0-1.6-0.2-2.8-0.6-3.4
			c-0.4-0.6-1.1-0.7-2-0.2c-0.5,0.3-0.8,0.5-0.9,0.7c-0.1,0.2-0.1,0.8,0,1.8c0.2,1.3,0,2.9-0.6,5c-0.6,2.1-0.7,3.9-0.5,5.5
			c0.4,3.2,2,4.7,4.7,4.5c2.7-0.1,7.1-1.9,13.3-5.4c2.3-1.3,3.9-2,5-2.2c1.1-0.2,1.8,0.1,2.3,0.9c0.3,0.6,0.4,1.9,0.2,4.1
			c-0.2,2.1-0.5,4-1,5.7c-0.4,1.5-0.9,3.4-1.5,5.6c-0.6,2.2-1.4,4.5-2.4,6.6c-1,2.2-1.7,3.8-2.1,4.9c-0.4,1.3-1.2,2.7-2.3,4.2
			c-1.1,1.5-2,2.4-2.7,2.8c-1,0.5-2.4,0.6-4,0.4c-1.7-0.2-3.3-0.7-4.9-1.6c-0.6-0.3-1-0.5-1.4-0.7c-1.3-0.6-2-0.7-2-0.1
			c0,0.8,1.3,2,4,3.6c2.7,1.5,4.9,2.4,6.6,2.6c1.1,0.1,1.8,0.1,2.2-0.1c0.4-0.2,1.2-0.9,2.5-2c1.3-1.3,2.4-2.7,3.3-4.3
			c0.9-1.6,2.2-4.4,3.8-8.4c4-9.7,5.8-17.9,5.5-24.6C327.7,29.4,327.3,28.5,326.6,27.8z M379.6,10.7c0.2-0.6,0-1.2-0.5-1.7
			c-0.4-0.4-0.7-0.6-1-0.6c-0.3,0-0.8,0.3-1.5,0.9c-0.8,0.6-1.9,2.4-3.3,5.4l-6,12.2c-7.9,15.9-11.8,23.9-11.7,24.2
			c0.2,0.3,0.6,0.4,1.1,0.4c0.5,0,1.2-0.7,2.1-2.2c0.9-1.5,2.9-5.3,6-11.3c5.9-11.5,10.2-19.4,13-23.8
			C378.8,12.5,379.4,11.4,379.6,10.7z M402.4,27.8c-0.8-0.4-1.4-0.6-1.8-0.6c-0.4,0-1.5,0.3-3.1,0.8c-1.7,0.5-5.5,2.2-11.5,5.1
			l-11.3,5.5c-1.5,0.7-2.4,1.3-2.7,1.9c-0.3,0.5-0.4,1-0.1,1.4c0.2,0.4,0.6,0.7,1.3,0.7c0.6,0,2.1-0.5,4.5-1.6
			c2.4-1,4.4-2.1,6.2-3.2c2-1.1,3.4-1.8,4.2-2c0.9-0.2,1.5-0.5,1.9-0.8c0.4-0.3,1-0.6,1.7-0.9c0.7-0.2,1.4-0.6,2.1-1.1
			c1.1-0.8,2.5-1.3,4-1.5c1.5-0.3,2.6-0.1,3.2,0.4c0.7,0.8,0.6,3-0.4,6.6l-2.4,8.9c-0.9,3.9-2.1,7.3-3.4,10.4
			c-1.3,3.1-2.5,5-3.5,5.7c-0.9,0.8-1.6,1-2.1,0.9c-0.5-0.2-0.9-0.9-1.3-2.3c-0.4-1.1-0.8-1.7-1.2-1.7c-0.3,0-0.5,0.2-0.6,0.5
			c-0.1,0.3,0,1.1,0.1,2.2c0.3,3,1.1,4.7,2.7,5.1c1.6,0.4,3.1-0.1,4.6-1.6c1.5-1.5,2.9-3.9,4.2-7.2l2.3-6.2c0.7-1.7,1.3-3.9,1.9-6.5
			l2-8.8c0.7-3.1,0.9-5.4,0.7-6.9C404.4,29.6,403.6,28.5,402.4,27.8z M383.1,17c1.8,1.1,3.7,2,5.7,2.7c2,0.7,3.8,1.1,5.2,1.1
			c1.5,0.1,2.8,0,4-0.3c1.2-0.3,2.1-0.6,2.7-1c0.6-0.4,0.9-0.9,0.7-1.5c-0.2-0.4-0.8-0.7-1.8-0.9c-1-0.2-1.8-0.1-2.4,0.2
			c-0.6,0.3-1.8,0.4-3.6,0.2c-1.7-0.2-3.2-0.6-4.3-1.1c-1.1-0.6-2.5-1.3-4.2-2.3c-1.3-0.8-2.3-1.2-3.2-1.4c-0.9-0.2-1.4,0-1.6,0.6
			c-0.3,0.6-0.2,1.2,0.2,1.7C381,15.5,381.8,16.2,383.1,17z M387.6,46.4c0.5-0.4,1.2-1.4,2.2-2.9c1-1.5,1.8-2.9,2.4-4.1l0.9-2.1
			l-0.9-0.9c-0.8-0.6-1.3-0.8-1.8-0.7c-0.4,0.1-1,0.7-1.8,1.6c-1,1.3-2.1,3-3.2,5.3c-1.3,2.5-3,5.6-5.2,9.4c-2.2,3.8-3.5,5.9-4,6.4
			c-0.4,0.5-0.6,1-0.6,1.5c0,0.5,0.3,0.8,0.8,0.8c1.1,0,2.7-1.7,4.7-5C384.7,50.2,386.8,47.1,387.6,46.4z M494.5,52.3
			c-0.8-0.1-2.7-0.1-5.9-0.1c-4.5,0.1-7.5,0.2-9.1,0.5c-1.5,0.3-4.2,0.5-7.9,0.5l-5.5,0.1l-0.2-1.2c-0.1-0.9,0.9-3.4,2.9-7.4
			c2-4.1,3-6.4,3-6.9c0-2.3-2.7-2.1-8.2,0.8c-2.1,1.1-3.4,1.6-4,1.6c-0.6-0.1-0.6-0.9-0.2-2.4c0.1-0.4,0.3-0.8,0.5-1.1
			c0.6-0.9,1.1-0.9,1.5,0.1c0.1,0.4,0.3,0.6,0.7,0.6c0.3,0,0.7-0.1,1.1-0.4c0.4-0.3,0.9-0.8,1.2-1.4c0.9-1.2,1.9-2.4,3.1-3.5
			c3-2.8,5.4-6.2,7.2-10.1c1.1-2.4,1.7-3.7,1.7-3.8c0-0.2-0.2-0.5-0.7-0.9c-0.9-0.9-2.8-0.8-5.6,0.6c-2.3,1.1-4.5,2.8-6.5,5.1
			c-2,2.3-3.2,4.5-3.6,6.5c-0.2,0.8-0.5,1.1-0.9,1.1c-0.4,0-0.6-0.5-0.4-1.4c0.2-0.9,0.4-2.6,0.7-5.2c0.2-1.7,0.3-2.8,0.2-3.3
			c0-0.5-0.2-0.9-0.5-1.3c-0.4-0.4-0.6-0.6-0.8-0.6c-0.1,0-0.4,0.2-0.8,0.7c-0.9,1.1-1.5,3.9-1.8,8.1c-0.3,2.7-0.6,5.1-0.9,7.2
			c-0.4,2.1-0.6,4-0.6,5.7c0,1.7-0.3,2.9-0.9,3.6c-0.6,0.7-0.7,1.3-0.2,1.8c0.3,0.3,0.7,0.3,1.5,0c0.7-0.2,2.3-0.9,4.6-1.9
			c3.7-1.6,5.9-2.6,6.5-2.8c0.6-0.2,1-0.2,1.1,0.1c0.1,0.4-0.6,2-2,4.8c-1.5,2.8-2.3,5.1-2.5,6.8c-0.1,1.3-0.2,2.1-0.4,2.4
			c-0.2,0.3-0.8,0.8-1.8,1.3c-3,1.7-6.4,3.1-10.3,4.2c-1.3,0.4-3.1,0.5-5.4,0.3c-1.8-0.1-2.9-0.1-3.3,0.1c-0.4,0.2-0.6,0.7-0.4,1.5
			c0.4,1.5,2.4,2.1,6.1,1.8c3.9-0.3,8.5-1.7,13.8-4.3c3.5-1.6,5.7-2.4,6.6-2.2c1.1,0.2,1.7,0.5,2,0.9c0.3,0.4,0.1,1.1-0.4,2.1
			c-0.9,1.8-2.5,4.2-4.7,7.2c-2.2,2.9-3.6,4.5-4.2,4.7c-0.4,0.2-0.9,0.3-1.4,0.3c-0.6,0-1,0.2-1.1,0.5c-0.1,0.3,0.1,0.8,0.5,1.3
			c1.2,1.3,2.4,1.6,3.5,1c1.1-0.6,2.8-2.5,5.2-5.7c2.4-3.2,4.2-6.1,5.4-8.7c1-2.1,1.6-3.4,1.9-3.8c0.3-0.6,1.1-0.9,2.4-1.1
			c1.4-0.2,3.9-0.3,7.6-0.3c3.2-0.1,5.3,0,6.4,0c1.1,0.1,2,0.3,2.7,0.7c1,0.4,1.7,0.6,2.1,0.4c0.4-0.2,0.8-0.9,1.3-2.1
			c0.3-0.8,0.4-1.3,0.3-1.5c0-0.3-0.3-0.6-0.7-1C495.9,52.6,495.3,52.4,494.5,52.3z M461.2,30.9c0.3-1.6,1.1-3.2,2.3-4.6
			c1.1-1.3,2.5-2.6,4.3-3.7c2.5-1.6,3.7-1.9,3.7-0.9c0,0.8-0.8,2.3-2.5,4.5c-1.6,2.2-3.4,4.3-5.4,6.1c-1.2,1.3-2,1.8-2.4,1.6
			C460.9,33.6,460.9,32.6,461.2,30.9z M457.5,16.1c4.8-2.3,9.2-4.7,13.2-7.2c4-2.4,6.4-3.8,7.4-4.3c1.1-0.4,1.9-1.2,2.2-2.3
			c0.3-1.1,0-1.7-1-1.7c-0.5,0-2.5,1-5.9,3.1l-8.1,5.1c-2,1.3-3.5,2.1-4.5,2.5c-1,0.4-2.6,1.1-4.9,2.3c-2.3,1.1-3.8,1.8-4.5,2
			c-0.7,0.2-2.2,0.7-4.5,1.6c-1.9,0.8-3.8,1.3-5.8,1.5c-2,0.3-3.4,0.2-4.3-0.1c-0.8-0.3-1.4-0.2-2,0.4c-0.6,0.5-0.8,1-0.6,1.4
			c0.2,0.4,0.6,0.8,1.4,1c0.9,0.3,2.5,0.3,4.8,0.1c2.2-0.2,4.1-0.4,5.5-0.8C448.8,20,452.7,18.4,457.5,16.1z M456.8,7.7
			c2.4,2.7,3.7,2.9,4,0.9c0.1-0.8-0.6-2-2-3.4c-1.1-1.2-2-1.9-2.9-2.2c-0.9-0.3-1.4-0.1-1.7,0.6c-0.1,0.4-0.1,0.9,0.2,1.3
			C454.7,5.2,455.5,6.2,456.8,7.7z M576.2,59.6c-0.5-0.4-1.3-0.6-2.4-0.6c-1.1,0-1.7-0.1-1.8-0.4c-0.2-0.3,0.3-1.6,1.5-4.1
			c1-2.2,1.6-3.9,1.7-5.2c0.1-1.2-0.2-2.2-1-3c-0.6-0.6-1.4-0.9-2.5-1c-1.1-0.1-2.2,0-3.3,0.4c-1.4,0.4-2.9,1.2-4.6,2.5
			c-1.6,1.3-2.8,2.5-3.6,3.7c-0.6,0.9-0.8,1.5-0.6,1.7c0.2,0.2,0.7-0.1,1.6-0.9c1.9-1.6,3.7-2.7,5.4-3.4c1.7-0.7,3-0.7,3.9-0.2
			c0.4,0.3,0.6,0.5,0.7,0.8c0.1,0.3,0.1,0.8,0,1.5c-0.3,1.8-1.5,4-3.6,6.8c-2.1,2.8-4,4.6-5.7,5.5c-0.9,0.4-1.5,1-1.8,1.8
			c-0.3,0.7-0.3,1.3,0.2,1.8c0.8,0.9,2.7,0.5,5.9-1c2.1-1.1,4.3-1.8,6.4-2.1l3.1-0.3l0.6-1.9c0.3-0.9,0.5-1.5,0.5-1.7
			C576.8,60.1,576.6,59.9,576.2,59.6z M576.4,20c-0.8,0.1-2.1,0.5-3.8,1.4c-4.1,2-7.5,2.8-10.2,2.5c-1.1-0.2-2.1-0.6-3.1-1.1
			c-1-0.6-1.5-1.1-1.5-1.5c0-0.5,0.4-1.7,1.2-3.7c1-2.2,1.7-3.9,2.2-5.1c0.4-1.2,0.7-2.1,0.8-2.9c0.1-0.8,0-1.2-0.2-1.5
			c-0.3-0.2-0.7-0.3-1.3-0.3c-0.6,0-1.1,0.4-1.4,1.2l-1.1,2.6c-0.4,0.9-0.6,1.5-0.6,1.8c0,0.5-0.9,2.6-2.8,6.3
			c-1.9,3.7-3.5,6.4-4.7,8.2c-2.7,4-4.3,6.5-5.1,7.5c-0.7,1-1.2,1.5-1.5,1.5c-0.3,0-0.4-0.6-0.2-1.9c0.2-1.3,0.1-2.1-0.4-2.6
			c-0.7-0.7-1.6-0.8-2.7-0.4c-1.1,0.4-2.8,1.6-5.1,3.4c-1.5,1.2-2.4,1.7-2.7,1.6c-0.3-0.2,0.4-1.8,2-5c3.2-6.4,4.8-10.8,4.8-13
			c0-1.3-0.3-2.3-0.8-3.2c-0.5-0.9-1.2-1.3-2-1.3c-0.7,0-1.1,0.3-1.3,0.8c-0.2,0.5,0,1.1,0.4,1.9c0.5,0.9,0.7,1.9,0.5,3
			c-0.1,0.9-0.8,2.9-2.1,5.8c-1.3,2.9-2.3,4.8-2.9,5.5c-0.5,0.7-0.8,1.2-0.8,1.4c0,0.3-0.3,0.8-1,1.7c-2.1,2.8-3,4.9-2.7,6.1
			c0.1,0.4,0.3,0.7,0.5,0.9c0.2,0.2,0.7,0.2,1.4,0.1c2.1,0,4.4-1,6.9-3.1c2.3-2,3.6-2.7,4.1-2.3c0.3,0.3-0.4,1.9-1.9,5
			c-1.5,3.1-2.7,5.1-3.6,6.2c-1.5,1.8-2.4,3.4-2.9,4.8c-0.5,1.4-0.4,2.4,0.2,3c0.4,0.4,0.9,0.5,1.5,0.3c0.6-0.2,1.6-0.7,2.9-1.6
			c1.6-1.1,2.5-1.6,2.7-1.5c0.4,0.4-1.3,2.5-5,6.3c-3.7,3.8-6.2,6-7.5,6.7c-0.9,0.4-1.5,0.9-1.7,1.5c-0.1,0.4,0,0.9,0.3,1.3
			c0.3,0.4,0.7,0.7,1.2,0.7c0.9,0,2.4-0.9,4.5-2.7c2.1-1.8,3.9-3.7,5.5-5.8c1.1-1.5,2.7-3.4,4.8-5.8c3.2-3.6,4.6-5.9,4.3-6.9
			c-0.2-0.4-0.7-0.3-1.5,0.4c-0.6,0.4-1.1,0.7-1.3,0.7c-0.6,0-0.3-0.6,0.9-1.8c0.6-0.6,0.9-1,1-1.4c0.1-0.4,0.2-0.9,0.1-1.6
			c-0.1-0.8-0.1-1.4,0.1-1.9c0.2-0.5,0.8-1.5,1.8-2.9l4.4-6.1c3.9-5.4,5.9-8.1,6.3-8.1c0.3,0,1,0.3,2.2,0.9c1.3,0.6,3.2,0.9,5.5,0.9
			c2.3,0,4.2-0.3,5.7-1c1.5-0.6,3-1.2,4.6-1.7c1.4-0.3,2.4-0.8,3.2-1.5c0.7-0.7,1-1.4,0.7-2C577.7,20.3,577.2,19.9,576.4,20z
			 M539.5,51.5c-0.5,0.4-0.8,0.6-0.9,0.4c-0.2-0.2,0-0.5,0.6-1.1c0.1-0.1,0.1-0.1,0.2-0.2c0.6-0.6,0.9-0.7,0.9-0.3
			C540.2,50.7,540,51.1,539.5,51.5z M557.6,46.6c-0.3-1.5-0.8-1.6-1.7-0.3c-0.5,0.7-0.9,2-1.3,4c-0.7,3.5-1.6,7.2-2.7,11.1
			c-0.3,1-0.5,2-0.5,2.8c-0.1,2.1,0.4,3.2,1.4,3.2c0.9,0.1,1.8-0.9,2.5-3c1.2-3.7,1.9-6,2.1-6.9c0.2-0.9,0.1-1.5-0.2-1.8
			c-0.4-0.3-0.6-0.6-0.6-0.9c0-0.4,0.2-1.3,0.5-2.7C557.6,49.8,557.7,47.9,557.6,46.6z M567.3,35.6c2-1.6,3.2-2.7,3.7-3.4
			c0.5-0.7,0.6-1.2,0.3-1.7c-0.5-0.5-1.1-0.6-1.8-0.4c-0.7,0.2-1.6,0.9-2.9,2c-2.7,2.4-5.9,4.8-9.7,7.1c-3.7,2.3-6.2,3.5-7.4,3.6
			c-1.3,0-2.3,0.4-2.9,1.1c-0.6,0.8-0.6,1.5,0.1,2.3c0.5,0.6,1.2,0.7,2.2,0.5c1-0.3,2.9-1.1,5.6-2.5
			C558.6,42.2,562.8,39.4,567.3,35.6z M636.8,14.6c-0.8-1.8-1.6-3-2.3-3.6c-0.6-0.4-1.4-0.7-2.4-0.7c-1,0-2,0.1-3,0.5
			c-0.9,0.4-2.3,1.2-4.1,2.3c-1.9,1.2-3.4,1.8-4.6,1.8c-1.2,0-1.8,0.2-2,0.5c-0.2,0.3-0.3,1.3-0.4,2.9c-0.1,1.6,0.2,2.6,0.7,3
			c0.6,0.4,0.9,1.5,0.8,3.1c-0.1,1.6-0.6,5.2-1.5,10.8c-1.1,6.8-2.1,10.8-3.1,12.2c-0.8,0.9-1.2,2.4-1.2,4.2c0,1.9-0.6,4.4-1.7,7.5
			c-1.1,3.2-2.2,5.5-3.3,7c-0.8,1.1-0.9,2.2-0.3,3.1c0.6,0.9,1.4,0.9,2.3-0.1c0.5-0.6,1.4-2.4,2.7-5.6c1.3-3.2,2.1-5.5,2.5-7
			c0.9-3.9,2.6-6.9,5.1-8.8c6.5-5.2,9.9-8,10.2-8.5c0.1-0.3,0.3-0.4,0.7-0.4c0.3,0.4,0.3,1.9,0.1,4.5c-0.2,2.6-0.6,5.5-1.1,8.7
			c-0.5,3.2-1,5-1.3,5.5c-0.3,0.2-0.5,0.2-0.8,0.1c-0.3-0.1-0.6-0.3-0.9-0.8c-0.3-0.4-0.5-0.9-0.6-1.4c-0.3-1.4-0.7-2.1-1.2-2.2
			c-0.4,0-0.7,0.6-0.7,1.7c0,2,0.9,4,2.7,5.9c0.8,0.8,1.4,1.3,1.8,1.3c0.4,0.1,0.9-0.2,1.6-0.8c0.7-0.6,1.3-2,1.8-4.2
			c0.5-2.2,1.2-6,1.8-11.3c2.1-16.2,3.1-25.2,2.9-27C638.1,17.9,637.6,16.4,636.8,14.6z M634.5,25.7c-0.4,2.7-0.6,4.8-0.8,6.5
			c-0.1,1.3-0.4,2.3-0.9,3.2c-0.5,0.9-1,1.3-1.7,1.3c-0.4,0-1.2,0.5-2.5,1.6c-3.4,2.8-5.6,4.5-6.8,5.1c-1,0.4-1.6,0.6-1.8,0.4
			c-0.2-0.2-0.1-1.2,0.3-3.2c0.2-1.3,0.4-2.2,0.7-2.7c0.3-0.6,0.9-1.3,1.8-2.2c2.6-2.7,4.9-3.9,6.8-3.6c0.9,0.2,1.6,0.2,2,0
			c0.4-0.2,0.6-0.6,0.6-1.3c0-0.7-0.3-1.1-0.8-1.4c-0.7-0.4-1.8-0.5-3.3-0.4c-1.5,0.1-2.7,0.4-3.5,0.8c-1,0.6-1.7,0.8-2.1,0.6
			c-0.4-0.2-0.5-0.9-0.3-2.1c0.2-1.3,0.3-3.1,0.3-5.5c0-2.1,0.2-3.6,0.7-4.4c0.4-0.8,1.5-1.7,3.2-2.7c2.9-1.6,5.1-1.6,6.4,0
			C634.6,17.8,635.2,21.1,634.5,25.7z M662.3,7.7c-1.3-1.1-3.4-1-6.1,0.2c-1.3,0.6-2.5,1.4-3.7,2.4c-1.2,1-2.1,2.1-2.6,3.1
			c-0.3,0.5-0.5,0.9-0.4,1.1c0,0.2,0.2,0.5,0.5,0.8c0.3,0.3,0.6,0.4,0.8,0.3c0.3-0.1,0.7-0.3,1.4-0.9c2-1.6,3.5-2.6,4.7-2.9
			c1.6-0.6,2.7-0.3,3,0.8c0.4,1.1,0.5,3.9,0.3,8.4c-0.2,4.7-0.3,7.1-0.5,7.3c-0.1,0.2-0.6,0.2-1.6,0.1c-0.9-0.1-2.8,0.4-5.6,1.5
			c-2.8,1.1-4.4,1.5-4.7,1.3c-0.3-0.3-0.3-1.2-0.1-2.8c0.4-3.3,0.4-5.6,0.1-6.8c-0.3-1.3-1-1.8-2.2-1.7c-1.6,0.2-2.1,1.3-1.5,3.2
			c0.4,0.9,0.4,2.8,0.1,5.7c-0.3,2.8-0.6,4.6-1.1,5.3l-1.3,1.8c-0.4,0.4-0.6,0.8-0.5,1.1c0,0.3,0.2,0.8,0.5,1.6
			c0.5,1.1,0.6,1.9,0.3,2.4c-0.3,0.5-0.5,1.8-0.7,3.8c-0.2,2-0.5,4.2-1.1,6.8c-0.4,2-0.8,3.6-0.9,5.1c-0.2,1.4-0.3,2.6-0.3,3.5
			c0,0.9,0.1,1.6,0.3,2.1c0.2,0.5,0.5,0.7,0.9,0.7c1.2,0,2-1.6,2.3-4.8c0.2-2,0.6-4.5,1.2-7.5c0.6-3.1,1-4.7,1.3-5
			c0.3-0.3,0.7-0.1,1.2,0.6c0.6,0.6,1,0.9,1.3,0.9c0.6,0,1.9-0.6,4-1.7c2.1-1.1,3.5-2,4.4-2.7c1.8-1.6,2.8-2.1,3.2-1.7
			c0.5,0.6,0.7,4.4,0.6,11.3c-0.2,5.4-0.4,8.7-0.6,9.9c-0.3,1-0.7,1.2-1.4,0.6c-0.3-0.3-1.1-1.6-2.2-3.9c-1.2-2.3-2.1-4.2-2.7-5.7
			c-0.4-1-0.9-1.5-1.3-1.6c-0.3-0.1-0.3,0.2-0.3,0.8c0.1,1.1,0.6,2.8,1.3,5c0.8,2.2,1.5,3.9,2.1,5c0.9,1.6,1.9,3.1,2.9,4.5
			c1.1,1.4,1.8,2,2.3,2c0.4,0,1-0.4,1.8-1.1c0.6-0.6,0.9-1.3,1-2c0.1-0.7,0.3-2.9,0.4-6.4c0.2-4.9,0.3-11.3,0.2-19.5
			c0-8.1,0.1-14.9,0.5-20.3c0.3-4.5,0.3-7.4,0.1-8.7C663.9,9.4,663.3,8.5,662.3,7.7z M659.7,36.6c-0.3,0.5-0.9,1.1-2,1.6
			c-0.9,0.4-2.1,1.2-3.6,2.1c-1.5,1-2.7,1.5-3.5,1.5c-0.8,0-1.8,0.4-2.9,1.1c-0.8,0.4-1.2,0.7-1.5,0.8c-0.2,0.1-0.4-0.1-0.5-0.5
			c-0.1-0.4,0-1.4,0.2-3.1c0.3-1.7,0.6-2.9,1-3.5c0.2-0.4,1.5-1.2,3.8-2.4c2.4-1.2,4.4-2.2,6.1-2.8c1.3-0.5,2.2-0.6,2.5-0.4
			c0.3,0.2,0.6,1.1,0.6,2.7C660.1,35.1,660,36.1,659.7,36.6z M752.1,67.4c-0.9,0-3-0.5-6-1.6c-3.1-1-5.6-2.1-7.7-3.1
			c-7.8-3.9-12.1-6.6-13.1-8.1c-0.4-0.5-0.6-0.9-0.5-1.2c0-0.3,0.3-0.8,0.7-1.6c0.7-1.2,1.6-3.1,2.8-5.8c1.2-2.7,2-4.8,2.5-6.3
			c0.4-1.5,0.7-3,0.8-4.5c0.1-1.5-0.1-2.6-0.6-3.2c-0.4-0.6-1.3-1.1-2.5-1.4c-1.2-0.3-2.6-0.3-4.2,0.1c-1.5,0.4-2.9,1-4,1.7
			l-2.9,1.8c-0.8,0.4-2.1,1.4-4.2,3c-2,1.5-3.2,2.2-3.5,1.9c-0.3-0.3,0.5-3.4,2.6-9.3c2-5.9,3.3-9.3,4-10.1c0.3-0.4,1.1-1,2.3-1.8
			c1.2-0.9,2.3-1.5,3.3-1.9c0.6-0.3,1.2-0.9,1.8-1.8c0.6-0.9,0.8-1.5,0.6-1.8c-0.2-0.3-1-0.9-2.5-1.8c-1.5-1-2.6-1.8-3.3-2.6
			c-0.6-0.7-1.1-1-1.4-1c-0.3,0-0.9,0.4-1.6,1.1c-0.8,0.8-1.3,1.8-1.5,2.9c-0.2,1.1-0.4,2.1-0.7,2.9c-0.3,0.8-0.4,1.6-0.4,2.4
			c0,0.8-0.4,1.5-1.2,2.1c-1.2,0.9-2.7,2-4.5,3.3c-1.8,1.2-2.7,1.8-2.8,1.8c-0.3,0-1.1,0.5-2.4,1.6c-1.4,1-3.6,2.4-6.9,4
			c-2.5,1.4-4.3,2.5-5.3,3.5c-1,0.9-1.3,1.7-0.8,2.2c0.5,0.6,1.4,0.6,2.7,0c1.3-0.7,5.2-3.1,11.6-7.2c4.5-3,6.9-4.3,7.1-4.1
			c0.3,0.4-0.7,4.2-3.1,11.5c-2.4,7.3-4.5,13.2-6.5,17.6c-1.4,3.3-2.1,5-2.1,5.2c0,0.2-0.3,1-1,2.6c-2.3,5.2-3.5,8.2-3.6,9.1
			c0,0.6,0.4,0.9,1.2,0.9c0.6,0,1.3-0.5,1.9-1.6c0.7-1.1,1.6-3.2,2.8-6.3c1.2-3,2.5-6.1,3.9-9.2c1.4-3.1,2.1-4.8,2.1-5.2
			c0-0.9,1.9-2.9,5.6-6c3.8-3.1,6.9-5.3,9.5-6.5c1.3-0.6,2.6-0.9,4.1-1.1c1.5-0.2,2.3-0.1,2.6,0.3c0.7,1.1,0.5,2.9-0.7,5.5l-2.7,6.4
			c-1.1,2.7-1.9,4-2.2,4.2c-0.6,0.3-1.7-0.8-3.2-3.1c-0.5-0.8-1.1-1.6-1.8-2.3c-0.7-0.7-1.4-1.2-1.9-1.4c-0.5-0.2-0.9-0.2-1.2,0
			c-0.3,0.4,0.1,1.7,1.1,3.8c1,2.1,2.1,4,3.2,5.5c1,1.3,0.9,2.8-0.5,4.5c-0.8,1.1-1.5,2.2-1.9,3.1c-0.4,0.9-1.6,2.4-3.5,4.3
			c-1.9,2-2.7,3.1-2.6,3.4c0.2,0.3,0.6,0.5,1.5,0.5c0.7,0,1.8-0.7,3.2-2.1c1.4-1.4,2.9-3.3,4.5-5.7c1.5-2.1,2.5-3.2,3-3.2
			c0.5,0,1.7,0.6,3.6,1.8c5.9,3.7,10.2,6.2,13,7.3c2.8,1.2,6.5,2.1,11.1,2.8c1.7,0.2,2.8,0.3,3.2,0.3c0.4,0,0.8-0.2,1.1-0.6
			c0.3-0.5,0.3-1-0.2-1.5C753.4,67.6,752.8,67.4,752.1,67.4z M717.1,13.3c0.3-0.8,0.7-1.5,1.3-2.2c0.3-0.4,0.7-0.4,1.3,0
			c0.6,0.4,1,0.9,1.1,1.5c0.1,0.6-0.4,1.2-1.5,1.8c-1.1,0.6-1.8,0.8-2.2,0.4C716.8,14.5,716.9,14,717.1,13.3z M773.7,27.8
			c0,1.4,0,4.3,0,8.7c-0.2,6.8-0.2,10.7,0.1,11.7c0.5,1.6,1.3,2.1,2.4,1.2c0.5-0.4,0.8-2,0.9-4.8c0.1-2.8,0.2-6.8,0.3-11.9
			c0.2-7.1-0.2-11.2-1.1-12.5c-0.4-0.4-0.8-0.6-1.4-0.5c-0.5,0.1-1,0.5-1.5,1.1c-0.6,0.6-0.9,1.2-0.9,1.6c0,0.4,0.2,1.2,0.7,2.2
			C773.5,25.3,773.7,26.4,773.7,27.8z M776,58.6c-0.6-0.3-1-0.5-1.3-0.4c-0.3,0-0.8,0.3-1.7,0.8c-0.9,0.6-1.5,1.5-1.9,2.7
			c-0.3,0.8-0.3,1.4-0.3,1.6c0.1,0.3,0.3,0.6,0.8,0.9c1,0.8,2.1,1,3.2,0.6c1.1-0.4,1.9-1.3,2.4-2.6C777.8,60.5,777.3,59.3,776,58.6z
			"/>
	</g>
</g>
</svg>
