<?xml version="1.0" encoding="utf-8"?>
<!-- Generator: Adobe Illustrator 18.0.0, SVG Export Plug-In . SVG Version: 6.00 Build 0)  -->
<!DOCTYPE svg PUBLIC "-//W3C//DTD SVG 1.1//EN" "http://www.w3.org/Graphics/SVG/1.1/DTD/svg11.dtd">
<svg version="1.1" id="图层_1" xmlns="http://www.w3.org/2000/svg" xmlns:xlink="http://www.w3.org/1999/xlink" x="0px" y="0px"
	 viewBox="0 0 175.8 215.4" enable-background="new 0 0 175.8 215.4" xml:space="preserve">
<path fill="#E45B50" d="M38.6,161.4c-11.7-12.7-36.7-42.2-36.7-72c0-48.6,38.8-88.1,86.6-88.1c47.9,0,86.6,39.4,86.6,88.1
	c0,30.9-26.9,60.2-39.4,73.9c-12.5,13.7-47.2,50.4-47.2,50.4S50.3,174.1,38.6,161.4L38.6,161.4z M139.6,59.5L139.6,59.5
	c-4-4.1-10.6-4.1-14.6,0l-47.1,47.9L52.1,81.2c-4.1-4.1-10.6-4.1-14.7,0v0c-4.1,4.1-4.1,10.8,0,14.9l30.3,30.8
	c0.5,1.2,1.2,2.4,2.2,3.4v0c2.2,2.2,5,3.1,7.9,3c2.8,0.2,5.7-0.8,7.9-3v0c1-1,1.8-2.2,2.3-3.5l51.6-52.4
	C143.6,70.3,143.6,63.6,139.6,59.5L139.6,59.5L139.6,59.5z M139.6,59.5"/>
</svg>
