<?xml version="1.0" encoding="utf-8"?>
<!-- Generator: Adobe Illustrator 18.0.0, SVG Export Plug-In . SVG Version: 6.00 Build 0)  -->
<!DOCTYPE svg PUBLIC "-//W3C//DTD SVG 1.1//EN" "http://www.w3.org/Graphics/SVG/1.1/DTD/svg11.dtd">
<svg version="1.1" id="图层_1" xmlns="http://www.w3.org/2000/svg" xmlns:xlink="http://www.w3.org/1999/xlink" x="0px" y="0px"
	 viewBox="0 0 96.4 96.4" enable-background="new 0 0 96.4 96.4" xml:space="preserve">
<path fill="#E6423F" d="M48.5,1.5c-25.9,0-47,21-47,47c0,25.9,21,47,47,47c25.9,0,47-21,47-47C95.5,22.6,74.4,1.5,48.5,1.5L48.5,1.5
	z M44.1,71.9c-12,0-24.3-5.8-24.3-15.4c0-5,3.2-10.8,8.6-16.2c7.3-7.3,15.8-10.6,19-7.4c1.4,1.4,1.5,3.8,0.6,6.8
	c-0.5,1.5,1.4,0.7,1.4,0.7c5.9-2.5,11-2.6,12.9,0.1c1,1.4,0.9,3.4,0,5.8c-0.4,1.1,0.1,1.2,0.9,1.5c3.3,1,7,3.5,7,7.9
	C70.4,62.8,59.9,71.9,44.1,71.9L44.1,71.9z M65.9,41.5c0.4-1.2,0.1-2.6-0.8-3.6c-0.9-1-2.2-1.4-3.5-1.1v0c-1,0.2-2-0.4-2.3-1.5
	c-0.2-1,0.4-2,1.5-2.3c2.5-0.5,5.3,0.2,7.1,2.3c1.9,2.1,2.3,4.8,1.6,7.3c-0.3,1-1.4,1.5-2.4,1.2C66.1,43.6,65.6,42.5,65.9,41.5
	L65.9,41.5L65.9,41.5z M77,45.1C77,45.1,77,45.1,77,45.1c-0.4,1.2-1.6,1.8-2.8,1.4c-1.2-0.4-1.8-1.6-1.4-2.8l0,0
	c1.2-3.6,0.4-7.7-2.3-10.7c-2.7-3-6.7-4.1-10.4-3.4c-1.2,0.3-2.4-0.5-2.6-1.7c-0.3-1.2,0.5-2.4,1.7-2.6h0c5.2-1.1,10.8,0.5,14.6,4.7
	C77.6,34.3,78.6,40,77,45.1L77,45.1z M60.3,54.6c-0.6-6.3-8.9-10.6-18.5-9.7C32.3,45.9,25,51.7,25.6,58c0.6,6.3,8.9,10.6,18.5,9.7
	C53.7,66.8,60.9,60.9,60.3,54.6L60.3,54.6z M50.2,59.8c-2,4.4-7.6,6.8-12.4,5.2c-4.6-1.5-6.6-6-4.5-10.1c2-4,7.1-6.3,11.7-5.1
	C49.8,51,52.2,55.4,50.2,59.8L50.2,59.8z M40.5,56.4c-1.5-0.6-3.4,0-4.3,1.5c-0.9,1.4-0.5,3.2,1,3.8c1.5,0.7,3.5,0,4.4-1.4
	C42.5,58.7,42,57,40.5,56.4L40.5,56.4z M44.1,54.9c-0.6-0.2-1.3,0-1.6,0.6c-0.3,0.6-0.1,1.2,0.4,1.4c0.6,0.2,1.3,0,1.7-0.6
	C44.9,55.7,44.7,55.1,44.1,54.9L44.1,54.9z M44.1,54.9"/>
</svg>
